<?xml version="1.0" standalone="no"?>
<!DOCTYPE svg PUBLIC "-//W3C//DTD SVG 20010904//EN"
 "http://www.w3.org/TR/2001/REC-SVG-20010904/DTD/svg10.dtd">
<svg version="1.0" xmlns="http://www.w3.org/2000/svg"
 width="16.000000pt" height="16.000000pt" viewBox="0 0 16.000000 16.000000"
 preserveAspectRatio="xMidYMid meet">
<metadata>
Created by potrace 1.11, written by Peter Selinger 2001-2013
</metadata>
<g transform="translate(0.000000,16.000000) scale(0.002286,-0.002286)"
fill="#000000" stroke="none">
<path d="M412 6075 l1 -515 106 0 c808 -1 1054 -4 1136 -16 417 -62 772 -272
1026 -610 38 -50 69 -94 69 -98 0 -5 9 -21 20 -36 66 -92 161 -338 186 -478 2
-12 6 -34 9 -50 33 -181 24 -439 -22 -617 -8 -33 -16 -67 -18 -75 -7 -35 -67
-184 -100 -252 -146 -296 -394 -543 -694 -693 -96 -48 -249 -106 -312 -119
-232 -46 -181 -44 -860 -45 l-546 -1 0 -1030 -1 -1030 513 0 c402 0 514 3 517
12 2 7 3 239 3 515 l-1 503 50 1 c168 2 333 22 526 65 298 66 665 229 898 398
188 136 393 326 514 478 l70 88 66 -83 c71 -87 258 -279 330 -337 24 -19 56
-45 70 -58 47 -40 304 -208 382 -249 260 -138 572 -239 855 -278 28 -4 66 -10
85 -13 19 -2 320 -7 668 -9 l632 -5 1 24 c0 13 1 244 1 513 l1 490 -44 2 c-24
2 -298 4 -609 7 -311 2 -576 6 -590 9 -14 3 -41 7 -60 11 -158 26 -391 115
-524 200 -31 20 -59 36 -62 36 -3 0 -47 33 -97 74 -159 129 -281 268 -381 439
-25 43 -46 79 -46 82 0 2 -13 32 -29 67 -85 186 -123 363 -127 598 -2 96 1
193 6 215 5 22 11 58 14 80 20 157 109 389 213 552 146 232 383 446 623 563
97 47 269 107 363 126 52 10 158 24 235 29 l82 6 1 -38 c0 -21 1 -253 1 -515
l0 -478 514 0 c483 0 514 1 515 18 0 15 0 1006 -1 1760 l0 283 -597 -2 c-439
-1 -629 -5 -713 -15 -599 -73 -1118 -323 -1535 -739 -100 -101 -136 -141 -216
-242 l-27 -33 -50 64 c-61 77 -144 168 -232 252 -353 339 -817 577 -1300 668
-84 16 -108 20 -250 35 -41 5 -341 9 -667 10 l-592 2 1 -516z"/>
</g>
</svg>
