<?xml version="1.0" encoding="utf-8"?>
<!-- Generator: Adobe Illustrator 16.0.4, SVG Export Plug-In . SVG Version: 6.00 Build 0)  -->
<!DOCTYPE svg PUBLIC "-//W3C//DTD SVG 1.1//EN" "http://www.w3.org/Graphics/SVG/1.1/DTD/svg11.dtd">
<svg version="1.1" id="Ebene_1" xmlns="http://www.w3.org/2000/svg" xmlns:xlink="http://www.w3.org/1999/xlink" x="0px" y="0px"
	 width="150px" height="150px" viewBox="0 0 300 300" enable-background="new 0 0 300 300" xml:space="preserve">
<path fill="#92ABB8" d="M222.333,98.684c0.987-12.128,0.979-20.496,0.973-21.537c0.014-1.106,0.117-27.309-18.935-46.599
	c-12.837-12.996-31.13-19.587-54.37-19.587c-37.482,0-55.396,17.427-63.823,32.045c-9.217,15.989-9.484,32.209-9.484,34.006v0.161
	c0,0.151,0,0.382,0.002,0.692v2.932h0.036c0.075,3.747,0.299,10.033,0.938,17.887c-3.521,0.167-6.552,1.547-8.791,4.049
	c-3.84,4.29-5.149,11.38-4.006,21.677c1.167,10.494,8.531,16.251,14.839,19.294c0.399,23.095,3.765,56.286,18.925,68.428
	c7.26,5.814,11.434,11.175,15.115,15.903c0.974,1.251,1.912,2.455,2.857,3.608l-40.372,22.819l2.094,3.287
	c0.829,1.303,20.891,31.874,71.833,31.874c50.94,0,71.004-30.571,71.832-31.874l2.094-3.287l-40.896-23.115
	c0.863-1.062,1.725-2.169,2.616-3.312c3.683-4.729,7.855-10.089,15.116-15.903c15.115-12.106,18.506-45.135,18.921-68.223
	c6.4-2.983,14.089-8.758,15.281-19.499c1.144-10.295-0.167-17.387-4.007-21.677C228.883,100.231,225.852,98.851,222.333,98.684z
	 M153.86,187.445h5.325c2.042,0,3.697-1.654,3.697-3.696s-1.655-3.697-3.697-3.697h-18.045c-2.042,0-3.697,1.655-3.697,3.697
	s1.655,3.696,3.697,3.696h5.326v19.622c-9.475-0.687-18.017-4.149-25.476-10.348v-21.994c0-14.854,24.216-18.951,29.173-19.633
	c4.961,0.684,29.171,4.781,29.171,19.633v21.723c-7.451,6.298-15.993,9.844-25.475,10.597V187.445z M150.672,147.699l-0.003-0.092
	h-1.011l-0.004,0.092c-5.05,0.621-36.057,5.326-36.057,27.026v14.532c-13.512-16.257-20.838-41.01-24.81-63.134
	c-0.33-7.16-2.158-63.389,20.821-76.654c9.361-5.402,22.262-2.728,38.348,7.944c0.605,0.401,1.317,0.617,2.044,0.617h0.324
	c0.729,0,1.438-0.216,2.045-0.617c16.083-10.672,28.986-13.348,38.344-7.946c21.396,12.345,21.284,62.034,20.903,74.542
	c-3.84,22.455-11.114,48.041-24.889,64.859v-14.144C186.729,153.025,155.723,148.32,150.672,147.699z M84.088,76.884
	c0.031-2.229,0.737-24.928,16.86-41.198c11.395-11.5,27.897-17.331,49.053-17.331c21.152,0,37.657,5.831,49.051,17.329
	c16.889,17.044,16.862,41.135,16.861,41.437c0.001,0.11,0.001,1.652-0.074,4.304c-3.223-15.901-9.476-31.459-21.426-38.356
	c-11.583-6.687-26.464-4.343-44.249,6.964c-17.786-11.308-32.666-13.65-44.251-6.964c-12.302,7.101-18.565,23.382-21.702,39.767
	c-0.123-3.521-0.124-5.588-0.124-5.715L84.088,76.884z M72.22,123.593c-1.16-10.455,0.861-14.468,2.169-15.929
	c0.971-1.083,2.271-1.612,3.969-1.617c0.477,4.541,1.089,9.432,1.874,14.54c-0.136,1.976-0.461,7.375-0.543,14.677
	C76.053,132.826,72.835,129.132,72.22,123.593z M150.164,282.23c-37.821,0-56.922-17.913-63.212-25.332l34.909-19.73
	c5.505,4.736,12.97,7.721,27.603,7.791c0.033,0.002,0.064,0.002,0.1,0.002h0.438c0.033,0,0.064,0,0.1-0.002
	c15.851-0.076,23.291-3.572,28.94-9.012l-0.662,1.171l34.965,19.763C206.984,264.26,187.646,282.23,150.164,282.23z M196.305,206.36
	c-7.938,6.357-12.592,12.331-16.328,17.131c-7.04,9.043-10.932,14.039-30.195,14.076c-19.265-0.037-23.154-5.033-30.195-14.076
	c-3.737-4.8-8.39-10.774-16.327-17.131c-10.604-8.494-14.619-32.008-15.793-53.263c5.233,17.206,12.999,33.804,24.551,45.423
	c10.61,10.67,23.39,16.08,37.984,16.08c14.594,0,27.373-5.41,37.983-16.08c11.156-11.221,18.789-27.083,24.014-43.653
	C210.701,175.643,206.621,198.098,196.305,206.36z M227.779,123.593c-0.64,5.757-4.092,9.516-7.902,11.948
	c-0.059-5.667-0.263-10.212-0.419-12.943c0.938-5.837,1.651-11.418,2.188-16.55c1.73,0.001,2.997,0.533,3.966,1.616
	C226.92,109.125,228.942,113.138,227.779,123.593z"/>
</svg>
