<?xml version="1.0" encoding="utf-8"?>
<!-- Generator: Adobe Illustrator 16.0.4, SVG Export Plug-In . SVG Version: 6.00 Build 0)  -->
<!DOCTYPE svg PUBLIC "-//W3C//DTD SVG 1.1//EN" "http://www.w3.org/Graphics/SVG/1.1/DTD/svg11.dtd">
<svg version="1.1" id="Ebene_1" xmlns="http://www.w3.org/2000/svg" xmlns:xlink="http://www.w3.org/1999/xlink" x="0px" y="0px"
	 width="150px" height="150px" viewBox="0 0 300 300" enable-background="new 0 0 300 300" xml:space="preserve">
<path fill="#92ABB8" d="M222.143,97.731c0.993-12.189,0.984-20.598,0.979-21.645c0.015-1.111,0.116-27.445-19.031-46.831
	c-12.901-13.062-31.285-19.685-54.642-19.685c-0.285,0-0.561,0.014-0.845,0.016c-0.027-0.001-0.055-0.002-0.082-0.002
	c-0.157,0.001-0.308,0.01-0.464,0.011c-1.244,0.015-2.478,0.043-3.693,0.096c-0.162,0.007-0.319,0.019-0.479,0.026
	c-1.243,0.059-2.476,0.134-3.688,0.232c-0.125,0.01-0.246,0.024-0.37,0.035c-1.241,0.106-2.468,0.229-3.676,0.377
	c-0.095,0.012-0.187,0.027-0.281,0.039c-1.232,0.154-2.449,0.328-3.646,0.527c-0.065,0.01-0.127,0.022-0.192,0.034
	c-1.223,0.205-2.43,0.432-3.616,0.683c-0.034,0.007-0.068,0.016-0.102,0.023c-1.214,0.259-2.41,0.539-3.586,0.846
	c-0.008,0.002-0.016,0.004-0.023,0.007c-11.955,3.12-21.966,8.706-29.896,16.734c-19.04,19.278-19.045,45.416-19.03,46.732
	c0,0.008,0,0.026,0,0.032c-0.007,1.073-0.015,9.504,0.98,21.711c-3.537,0.168-6.585,1.555-8.835,4.069
	c-3.858,4.312-5.176,11.438-4.026,21.785c1.565,14.082,14.238,19.677,20.653,21.62c5.21,19.787,13.507,39.564,26.727,52.861
	c1.101,1.105,2.229,2.143,3.375,3.137v30.252l-40.397,22.832l2.104,3.303c0.833,1.309,20.994,32.033,72.191,32.033
	c51.196,0,71.358-30.725,72.191-32.033l2.104-3.303l-40.396-22.832v-28.756c1.773-1.42,3.504-2.953,5.173-4.633
	c13.22-13.297,21.518-33.076,26.728-52.862c6.414-1.945,19.088-7.542,20.652-21.619c1.149-10.347-0.167-17.474-4.027-21.785
	C228.726,99.287,225.678,97.899,222.143,97.731z M100.017,34.569c6.33-6.436,14.244-11.118,23.649-14.021
	c0.044-0.014,0.086-0.028,0.129-0.042c0.959-0.294,1.938-0.564,2.928-0.821c0.104-0.027,0.205-0.059,0.31-0.085
	c0.946-0.241,1.911-0.46,2.885-0.667c0.155-0.033,0.307-0.071,0.462-0.104c0.942-0.194,1.901-0.367,2.868-0.53
	c0.197-0.033,0.39-0.071,0.588-0.104c0.946-0.152,1.911-0.283,2.882-0.407c0.228-0.028,0.45-0.062,0.68-0.091
	c0.971-0.115,1.958-0.21,2.952-0.296c0.236-0.021,0.468-0.046,0.705-0.065c1.017-0.081,2.051-0.141,3.092-0.191
	c0.221-0.01,0.437-0.025,0.658-0.034c1.09-0.047,2.196-0.071,3.312-0.085c0.16-0.001,0.318-0.007,0.479-0.008
	c20.889,0.175,37.202,6.079,48.487,17.553c14.761,15.01,16.562,35.372,16.779,40.356c-6.213-4.423-15.737-13.401-15.737-26.868
	c0-1.569-0.983-2.968-2.461-3.498c-1.478-0.526-3.126-0.077-4.121,1.137c-0.099,0.117-10.672,11.86-42.993,11.86
	c-32.374,0-42.917-11.775-42.992-11.86c-0.996-1.212-2.646-1.662-4.122-1.137c-1.477,0.53-2.461,1.929-2.461,3.498
	c0,13.476-9.538,22.457-15.739,26.873C83.444,70.06,85.212,49.623,100.017,34.569z M71.281,122.764
	c-1.167-10.507,0.863-14.539,2.178-16.008c0.975-1.089,2.28-1.619,3.987-1.626c0.98,9.372,2.539,20.23,5.007,31.396
	C77.544,134.287,72.104,130.165,71.281,122.764z M212.045,256.719c-6.391,7.414-25.825,25.475-63.495,25.475
	c-38.01,0-57.207-18.002-63.527-25.457l37.059-20.945v-29.119c1,0.613,2.019,1.178,3.046,1.715c0.057,0.029,0.113,0.057,0.17,0.088
	c3.063,1.588,6.252,2.85,9.56,3.777c0.155,0.045,0.311,0.088,0.467,0.131c2.142,0.58,4.331,1.027,6.571,1.332
	c0.228,0.031,0.456,0.055,0.685,0.082c0.872,0.107,1.753,0.193,2.641,0.26c0.296,0.023,0.59,0.045,0.887,0.062
	c1.105,0.064,2.217,0.107,3.343,0.107c1.063,0,2.114-0.035,3.158-0.094c0.287-0.016,0.573-0.041,0.859-0.061
	c0.789-0.055,1.572-0.127,2.351-0.215c0.272-0.031,0.547-0.062,0.819-0.1c0.896-0.113,1.785-0.252,2.666-0.412
	c0.116-0.02,0.232-0.037,0.349-0.059c2.138-0.402,4.228-0.939,6.272-1.602c0.036-0.012,0.072-0.023,0.109-0.035
	c1.011-0.33,2.008-0.693,2.993-1.084c0.017-0.008,0.034-0.016,0.052-0.021c2.03-0.811,4.013-1.746,5.941-2.824v28.07
	L212.045,256.719z M182.353,192.828c-1.666,1.676-3.395,3.197-5.181,4.574l-0.66,0.492c-0.97,0.725-1.96,1.404-2.964,2.039
	c-0.029,0.018-0.055,0.037-0.084,0.055c-0.952,0.6-1.922,1.154-2.905,1.676c-0.148,0.078-0.299,0.154-0.447,0.232
	c-1.953,1.008-3.966,1.857-6.035,2.555c-0.173,0.057-0.344,0.119-0.516,0.174c-1.016,0.328-2.043,0.623-3.085,0.877
	c-0.14,0.033-0.28,0.061-0.418,0.092c-0.977,0.229-1.964,0.422-2.96,0.586c-0.143,0.021-0.282,0.051-0.424,0.072
	c-1.057,0.162-2.125,0.281-3.205,0.371c-0.226,0.02-0.455,0.033-0.685,0.047c-1.1,0.076-2.209,0.127-3.335,0.127
	c-1.224,0-2.427-0.059-3.621-0.146c-0.193-0.014-0.388-0.025-0.58-0.041c-1.143-0.098-2.271-0.24-3.387-0.42
	c-0.203-0.033-0.403-0.068-0.604-0.104c-1.136-0.199-2.26-0.432-3.365-0.715c-0.092-0.023-0.181-0.053-0.272-0.076
	c-1.093-0.289-2.17-0.619-3.233-0.99c-0.108-0.037-0.219-0.07-0.327-0.109c-1.073-0.383-2.128-0.816-3.17-1.285
	c-0.171-0.078-0.343-0.154-0.513-0.234c-1.036-0.482-2.059-1.002-3.063-1.568c-0.11-0.062-0.22-0.129-0.33-0.193
	c-2.154-1.24-4.236-2.668-6.235-4.297c-0.046-0.037-0.093-0.072-0.139-0.111l-0.636-0.518c-1.167-0.984-2.308-2.035-3.42-3.152
	C89.163,165.295,84.27,105,83.396,83.664c5.431-3.14,19.041-12.453,22.3-28.489c6.751,4.254,19.951,9.812,42.854,9.812
	s36.103-5.558,42.854-9.812c3.72,18.308,20.935,27.858,24.061,29.454C214.493,106.697,209.366,165.656,182.353,192.828z
	 M227.616,122.764c-0.821,7.396-6.26,11.52-11.168,13.758c2.467-11.164,4.024-22.022,5.007-31.39
	c1.741-0.021,3.01,0.535,3.983,1.624C226.753,108.225,228.783,112.257,227.616,122.764z"/>
</svg>
