<?xml version="1.0" encoding="utf-8"?>
<!DOCTYPE svg PUBLIC "-//W3C//DTD SVG 1.1//EN" "http://www.w3.org/Graphics/SVG/1.1/DTD/svg11.dtd">
<svg version="1.1" id="Ebene_1" xmlns="http://www.w3.org/2000/svg" xmlns:xlink="http://www.w3.org/1999/xlink" x="0px" y="0px"
	 width="14px" height="14px" viewBox="0 0 24 24" enable-background="new 0 0 24 24" xml:space="preserve">
<g>
	<path d="M8.669,13.338L19.12,2.886c0.097-0.097,0.208-0.146,0.329-0.146c0.122,0,0.226,0.05,0.312,0.146l3.238,3.239
		c0.097,0.087,0.146,0.19,0.146,0.312c0,0.122-0.05,0.232-0.146,0.33L8.669,21.115c-0.085,0.096-0.192,0.146-0.32,0.146
		c-0.129,0-0.234-0.051-0.321-0.146L1,14.088c-0.097-0.098-0.146-0.209-0.146-0.33S0.903,13.533,1,13.447l3.24-3.24
		c0.084-0.098,0.188-0.146,0.311-0.146s0.231,0.049,0.33,0.146l3.129,3.13c0.085,0.086,0.195,0.127,0.33,0.127
		C8.474,13.465,8.584,13.424,8.669,13.338z"/>
</g>
</svg>
