<?xml version="1.0" encoding="utf-8"?>
<!-- Generator: Adobe Illustrator 16.0.4, SVG Export Plug-In . SVG Version: 6.00 Build 0)  -->
<!DOCTYPE svg PUBLIC "-//W3C//DTD SVG 1.1//EN" "http://www.w3.org/Graphics/SVG/1.1/DTD/svg11.dtd">
<svg version="1.1" id="Ebene_1" xmlns="http://www.w3.org/2000/svg" xmlns:xlink="http://www.w3.org/1999/xlink" x="0px" y="0px"
	 width="695.382px" height="257.08px" viewBox="0 0 695.382 257.08" enable-background="new 0 0 695.382 257.08"
	 xml:space="preserve">
<line fill="none" stroke="#CCCCCC" stroke-width="2" stroke-linecap="round" stroke-miterlimit="10" x1="263.382" y1="136" x2="444.382" y2="136"/>
<g>
	<path fill="#92ABB8" d="M569.595,53.928c-0.354,5.699-0.644,12.772-0.921,20.957l-21.705,6.823
		c-0.059,0.019-0.089,0.058-0.142,0.085l-1.437,0.021c-0.552,0.008-0.989,0.491-0.983,1.044c0.008,0.548,0.458,1.143,1.004,1.143
		c0.004,0,0.009,0,0.014,0l0.96-0.015c0,0.005-0.003,0.01-0.003,0.015v3v9v2c-0.553,0-1,0.447-1,1v1c0,0.553,0.447,1,1,1h2
		c0.553,0,1-0.447,1-1v-1c0-0.553-0.447-1-1-1v-2v-9v-3c0-0.017-0.009-0.03-0.01-0.046l20.089-0.313
		c-0.167,4.9-0.506,10.873-0.987,17.563l-7.788,2.601c-0.002,0.001-7.216,2.411-7.216,2.411c-0.034,0.012-0.059,0.037-0.091,0.052
		l-1.485,0.009c-0.552,0.006-0.995,0.263-0.99,0.815c0.005,0.549,0.452,0.908,1,0.908c0.003,0,0.007,0,0.01,0l0.469-0.003
		c0,0.001,0,0.002,0,0.003v3v9v2c-0.553,0-1,0.447-1,1v1c0,0.553,0.447,1,1,1h2c0.553,0,1-0.447,1-1v-1c0-0.553-0.447-1-1-1v-2v-9
		v-2.981l0.106-0.035l13.475-0.087c-2.022,25.212-5.716,57.892-9.794,81.854c-0.186,1.089,0.547,2.122,1.636,2.308
		c0.114,0.02,0.227,0.028,0.338,0.028c0.958,0,1.804-0.689,1.97-1.664c0.617-3.624,1.224-7.456,1.818-11.422h27.501
		c0.685,3.969,1.344,7.799,1.961,11.422c0.166,0.975,1.012,1.664,1.97,1.664c0.111,0,0.224-0.009,0.338-0.028
		c1.089-0.186,1.821-1.218,1.636-2.308c-0.774-4.551-1.615-9.42-2.491-14.494c-3.757-21.761-8.123-47.065-10.774-67.463
		l14.372-0.092c-0.031,0.096-0.061,0.192-0.061,0.299v3v9v2c-0.553,0-1,0.447-1,1v1c0,0.553,0.447,1,1,1h2c0.553,0,1-0.447,1-1v-1
		c0-0.553-0.447-1-1-1v-2v-9v-3c0-0.11-0.029-0.212-0.062-0.311l0.231-0.002c0.552-0.006,0.995-0.298,0.99-0.851
		c-0.005-0.549-0.452-0.837-1-0.837c-0.003,0-0.007,0-0.01,0l-0.543,0.003c-0.117-0.12-0.255-0.223-0.429-0.271l-16.314-4.62
		c-0.785-6.733-1.324-12.74-1.52-17.662l20.656-0.322V86v9v2c-0.553,0-1,0.447-1,1v1c0,0.553,0.447,1,1,1h2c0.553,0,1-0.447,1-1v-1
		c0-0.553-0.447-1-1-1v-2v-9v-2.904l0.724-0.012c0.552-0.008,0.993-0.593,0.986-1.146c-0.008-0.548-0.454-0.938-1-0.938
		c-0.004,0-0.009,0-0.014,0l-1.414,0.02c-0.037-0.016-0.065-0.043-0.104-0.054l-22.136-6.296
		c-0.335-8.178-0.821-15.177-1.313-20.788l12.308-0.06c-0.012,0.06-0.036,0.114-0.036,0.178v3v9v2c-0.553,0-1,0.447-1,1v1
		c0,0.553,0.447,1,1,1h2c0.553,0,1-0.447,1-1v-1c0-0.553-0.447-1-1-1v-2v-9v-3c0-0.066-0.025,0-0.038,0h0.087
		c0.553,0,0.997-0.424,0.992-0.976c-0.005-0.55-0.451-1.024-1-1.024c-0.003,0-0.006,0-0.008,0l-0.102,0.001
		c-0.063-0.032-0.12-0.074-0.191-0.093l-14.557-3.723c-0.528-5.044-0.996-8.271-1.206-9.409c-0.112-0.998-0.95-1.776-1.978-1.776
		c0,0-2.379,0.037-2.557,0.088c-0.861,0.086-1.594,0.717-1.764,1.607c-0.255,1.34-0.604,4.628-0.971,9.542l-13.498,3.834
		c-0.091,0.025-0.165,0.077-0.242,0.125l-1.533,0.008c-0.553,0.005-0.997,0.347-0.992,0.898c0.004,0.396,0.24,0.68,0.574,0.812
		c-0.003,0.029-0.018,0.055-0.018,0.085v3v9v2c-0.553,0-1,0.447-1,1v1c0,0.553,0.447,1,1,1h2c0.553,0,1-0.447,1-1v-1
		c0-0.553-0.447-1-1-1v-2v-9v-3L569.595,53.928z M589.388,106.028c0,0.011,0.005,0.019,0.006,0.029h-0.065L589.388,106.028z
		 M586.546,105.222l-0.017-0.819l1.051,0.298L586.546,105.222z M584.562,106.085l-1.121,0.007l1.104-0.92L584.562,106.085z
		 M563.411,105.4l-0.861-0.444l0.868-0.29L563.411,105.4z M565.412,105.347l1.044,0.841l-1.053,0.007L565.412,105.347z
		 M564.617,81.547c-0.032-0.021-0.053-0.051-0.087-0.067l-0.148-0.074v-2.484l3.37,2.583L564.617,81.547z M557.382,80.544v0.886
		c-0.016-0.005-0.027-0.018-0.043-0.021l-1.465-0.391L557.382,80.544z M559.382,81.142l0.93,0.465l-0.93,0.013V81.142z
		 M560.624,79.526l1.758-0.552v1.431L560.624,79.526z M565.382,51.982l-0.635-0.146l0.635-0.181V51.982z M567.382,52.089
		l0.097,0.049l-0.097,0.001V52.089z M583.382,51.614v-0.132l0.257,0.065L583.382,51.614z M581.395,52.063l-0.599,0.004l0.586-0.329
		V52C581.382,52.022,581.394,52.042,581.395,52.063z M565.681,159c0.002-0.021,0.005-0.042,0.008-0.063l10.309-13.744l10.957,13.574
		c0.014,0.078,0.026,0.155,0.04,0.233H565.681z M572.868,71.07l1.664-1.099l1.85,1.179c0,0.001,0,0.003,0,0.005l-1.725,0.905
		l-1.762-0.906C572.896,71.126,572.868,71.099,572.868,71.07z M574.483,47.623c0.007,0.062,0.014,0.126,0.021,0.188
		c-0.009-0.004-0.018-0.006-0.026-0.009c-0.047-0.018-0.09-0.046-0.139-0.057l0.129-0.139L574.483,47.623z M574.198,50.621
		l0.688,1.024c0.015,0.151,0.028,0.299,0.043,0.453l-1.098,0.006c0.021-0.319,0.042-0.638,0.063-0.946L574.198,50.621z
		 M574.471,56.474l0.9,0.764c0.017,0.214,0.034,0.424,0.051,0.641l-0.907,0.663l-1.029-0.715c0.01-0.185,0.02-0.372,0.03-0.555
		L574.471,56.474z M573.269,61.928l1.277-0.933l1.164,0.808c0.007,0.111,0.015,0.223,0.022,0.335l-1.207,0.819l-1.263-0.917
		C573.265,62.004,573.267,61.965,573.269,61.928z M574.486,65.4l1.513,1.1l-1.551,1.062l-1.398-0.921
		c0.004-0.092,0.008-0.183,0.012-0.273L574.486,65.4z M575.835,75.941l-1.338,1.264l-1.453-1.231L575.835,75.941z M576.549,78.018
		c0.011,0.315,0.021,0.637,0.031,0.955l-0.55-0.466L576.549,78.018z M576.332,81.385l-3.397,0.047l1.634-1.543L576.332,81.385z
		 M576.758,84.32c0.008,0.172,0.019,0.353,0.027,0.526l-0.445-0.259L576.758,84.32z M577.382,87.239c0,0.003,0,0.006,0,0.009
		l-2.338,1.237l-2.662-1.308c0-0.008,0-0.017,0-0.025l2.32-1.354L577.382,87.239z M572.218,89.386l0.526,0.279l-0.56,0.324
		C572.195,89.79,572.207,89.582,572.218,89.386z M571.929,94.511l0.383,0.203l-0.409,0.226
		C571.911,94.796,571.92,94.653,571.929,94.511z M572.112,92.341l2.714-1.569l2.364,1.255l-2.787,1.535L572.112,92.341z
		 M576.866,89.591l0.213-0.123c0.006,0.082,0.013,0.164,0.019,0.246L576.866,89.591z M577.483,94.148
		c0.035,0.37,0.069,0.736,0.106,1.112l-1.08-0.575L577.483,94.148z M571.751,97.307l2.667-1.47l3.419,1.823
		c0.012,0.109,0.021,0.214,0.033,0.323l-2.855,2.484l-3.286-2.822C571.736,97.53,571.743,97.421,571.751,97.307z M578.442,103
		c0.019,0.154,0.035,0.304,0.054,0.459L577.962,103H578.442z M577.451,101l0.688-0.599c0.022,0.199,0.045,0.398,0.068,0.599H577.451
		z M578.524,106.119l-7.003,0.04l3.502-3.047L578.524,106.119z M580.005,115h-9.531l4.685-6.444L580.005,115z M572.399,119.023
		l-0.018-0.019V119h-0.005l-1.946-2h3.28L572.399,119.023z M578.463,118.994L577.097,117h3.125L578.463,118.994z M580.872,121
		c0.094,0.64,0.19,1.284,0.287,1.929L579.837,121H580.872z M570.976,107.871l2.219-0.015l-1.15,1.583l-1.074-1.489
		C570.972,107.924,570.974,107.897,570.976,107.871z M569.166,128c0.013-0.123,0.023-0.245,0.036-0.368l6.2-9.565l6.442,9.403
		c0.027,0.176,0.055,0.354,0.082,0.53 M572.125,132.249L569.711,130h3.974L572.125,132.249z M579.955,133.146L577.621,130h4.529
		L579.955,133.146z M582.667,132.755c0.059,0.372,0.117,0.743,0.176,1.117l-0.951-0.005L582.667,132.755z M583.162,135.873
		c0.108,0.678,0.217,1.355,0.326,2.034l-1.514-2.04L583.162,135.873z M569.997,133h-1.338c0.039-0.379,0.079-0.759,0.117-1.138
		L569.997,133z M567.583,143c0.031-0.274,0.061-0.549,0.092-0.823l7.967-11.489l8.544,11.515c0.043,0.267,0.087,0.532,0.13,0.798
		 M578.413,145h6.139l-2.428,4.598L578.413,145z M584.175,150l0.988-1.872c0.104,0.624,0.207,1.248,0.312,1.872H584.175z
		 M585.81,152c0.154,0.913,0.308,1.824,0.461,2.735L584.062,152H585.81z M573.643,145l-3.345,4.46l-2.745-4.46H573.643z
		 M588.535,168h-2.582l1.976-3.527C588.132,165.654,588.334,166.83,588.535,168z M578.312,109.424l-1.197-1.592l1.928-0.013
		c0.013,0.092,0.024,0.184,0.036,0.275L578.312,109.424z M573.034,78.587l-0.435,0.41c0.008-0.254,0.016-0.507,0.023-0.759
		L573.034,78.587z M572.498,84.668l-0.073,0.047c0.001-0.028,0.002-0.059,0.003-0.087L572.498,84.668z M572.564,101h-1.067
		c0.021-0.291,0.04-0.576,0.061-0.865L572.564,101z M571.351,103h0.754l-0.805,0.701C571.317,103.464,571.333,103.235,571.351,103z
		 M569.839,121h1.279l-1.498,2.311C569.694,122.538,569.768,121.765,569.839,121z M568.45,135h1.768l-2.088,3.01
		C568.238,137.005,568.346,136.001,568.45,135z M567.019,147.949l1.263,2.051h-1.503
		C566.859,149.316,566.939,148.633,567.019,147.949z M568.393,152l-2.207,2.941c0.12-0.979,0.237-1.96,0.355-2.941H568.393z
		 M564.987,164.359l2.136,3.641H564.5C564.664,166.793,564.827,165.58,564.987,164.359z M566.287,170l-2.446,2.765
		c0.129-0.917,0.259-1.837,0.387-2.765H566.287z M568.89,167.06l-3.48-5.935c0.005-0.041,0.01-0.083,0.016-0.125h8.829
		L568.89,167.06z M587.335,161c0.02,0.113,0.039,0.227,0.058,0.339l-3.2,5.715L578.671,161H587.335z M588.879,170
		c0.156,0.906,0.312,1.808,0.467,2.704L586.88,170H588.879z M592.382,80.579V80.15l0.873,0.248L592.382,80.579z M588.242,78.973
		l-2.86,1.666v-2.479L588.242,78.973z M583.382,81.287l-2.254,0.031l2.254-1.878V81.287z M590.382,80.041v1.024
		c-0.056,0.035-0.098,0.082-0.145,0.126l-1.876,0.026L590.382,80.041z M582.706,77.398l-2.117,1.765
		c-0.026-0.808-0.054-1.604-0.083-2.391L582.706,77.398z M579.515,50.493l-0.68,0.381c-0.02-0.193-0.037-0.38-0.056-0.569
		L579.515,50.493z M569.887,51.118l-0.937-0.477l0.988-0.28C569.921,50.61,569.903,50.862,569.887,51.118z M568.58,79.618
		l-2.397-1.837l2.477-0.778C568.632,77.864,568.605,78.733,568.58,79.618z M567.247,104.258l-0.763-0.615l0.831-0.278
		C567.293,103.66,567.271,103.959,567.247,104.258z M558.949,106.159l-0.002,0.071l-0.216,0.001L558.949,106.159z M576.452,161.536
		l13.525,14.829c0.037,0.213,0.072,0.422,0.109,0.635H563.23c0.03-0.209,0.061-0.422,0.091-0.631 M591.372,106.047
		c0.001-0.017,0.01-0.03,0.01-0.047v-0.223l0.933,0.264L591.372,106.047z M583.405,103.518l-0.793,0.66
		c-0.037-0.305-0.076-0.614-0.113-0.916L583.405,103.518z"/>
	<text transform="matrix(1 0 0 1 489.2666 225.2754)" fill="#767675" font-family="'OpenSans'" font-size="29.531">Fremdnetz</text>
</g>
<g>
	<g>
		<g>
			<path fill="#92ABB8" d="M47.302,185.863c-0.311,0-0.85,0-1.392-0.042v8.631h-6.013V168.45c2.235-0.115,4.703-0.194,7.404-0.194
				c6.627,0,10.25,3.005,10.25,8.357C57.552,181.661,53.929,185.863,47.302,185.863z M47.183,173.146c-0.424,0-0.849,0-1.272,0.042
				v7.627c0.388,0.037,0.734,0.079,1.044,0.079c2.505-0.042,4.394-1.466,4.394-4.008C51.348,174.69,50.152,173.146,47.183,173.146z"
				/>
			<path fill="#92ABB8" d="M75.059,194.452l-6.167-10.17h-0.229v10.17h-6.017V168.45c2.198-0.158,5.013-0.194,8.134-0.194
				c6.131,0,9.83,2.195,9.83,7.706c0,3.503-2.271,6.356-5.743,7.201c0.693,1.004,1.387,1.965,2.003,2.932l5.515,8.357H75.059z
				 M70.319,173.188c-0.616,0-1.31,0.036-1.656,0.079v6.66c0.306,0.036,0.926,0.079,1.501,0.079c2.546,0,4.165-1.351,4.165-3.546
				C74.329,174.417,73.134,173.188,70.319,173.188z"/>
			<path fill="#92ABB8" d="M97.269,194.95c-8.055,0-11.987-5.005-11.987-13.174c0-8.473,5.821-13.831,12.914-13.831
				c6.86,0,11.987,3.972,11.987,13.102C110.183,189.599,104.481,194.95,97.269,194.95z M97.734,173.42
				c-3.124,0-6.09,2.427-6.09,7.857c0,5.006,1.848,8.169,5.972,8.169c2.855,0,6.208-2.123,6.208-8.017
				C103.824,176.193,101.703,173.42,97.734,173.42z"/>
			<path fill="#92ABB8" d="M122.066,173.571v5.548h7.864v4.932h-7.864v10.401h-6.013V168.45h14.338v5.121H122.066z"/>
			<path fill="#92ABB8" d="M137.147,194.452V168.45h14.646v5.042h-8.631v5.164h8.169v4.896h-8.169v5.735h8.631v5.164H137.147z"/>
			<path fill="#92ABB8" d="M169.146,194.799c-9.598,0-12.177-6.508-12.177-12.408c0-8.43,4.586-14.135,13.18-14.135
				c1.812,0,3.704,0.231,5.322,0.657l-0.693,5.431c-1.466-0.426-3.126-0.693-4.744-0.693c-4.203,0-6.472,3.041-6.472,7.743
				c0,5.121,2.08,7.938,6.781,7.938c1.351,0,3.315-0.347,4.55-0.925l0.693,5.353C173.694,194.415,171.384,194.799,169.146,194.799z"
				/>
			<path fill="#92ABB8" d="M191.698,173.571v20.881h-5.974v-20.881h-6.246v-5.121h18.466v5.121H191.698z"/>
			<path fill="#92ABB8" d="M212.358,194.95c-8.053,0-11.987-5.005-11.987-13.174c0-8.473,5.82-13.831,12.906-13.831
				c6.866,0,11.994,3.972,11.994,13.102C225.271,189.599,219.566,194.95,212.358,194.95z M212.821,173.42
				c-3.12,0-6.089,2.427-6.089,7.857c0,5.006,1.85,8.169,5.973,8.169c2.853,0,6.204-2.123,6.204-8.017
				C218.909,176.193,216.786,173.42,212.821,173.42z"/>
		</g>
		<g>
			<path fill="#767675" d="M49.48,224.692c-6.186,0-9.032-3.838-9.032-9.75c0-5.997,2.906-10.607,9.712-10.607
				c1.542,0,3.143,0.237,4.62,0.59l-0.236,2.099c-1.656-0.499-3.198-0.767-4.768-0.767c-4.857,0-6.869,3.783-6.869,8.333
				c0,5.14,2.28,8.096,7.166,8.096c1.542,0,3.467-0.444,4.707-1.064l0.238,2.007C53.481,224.278,51.556,224.692,49.48,224.692z"/>
			<path fill="#767675" d="M67.795,224.723c-5.979,0-8.85-3.99-8.85-10.018c0-6.708,4.229-10.455,9.384-10.455
				c5.419,0,8.822,3.601,8.822,10.012C77.151,220.939,72.918,224.723,67.795,224.723z M68.032,206.196
				c-3.521,0-6.664,2.871-6.664,8.096c0,4.993,2.162,8.448,6.664,8.448c3.494,0,6.691-2.835,6.691-8.12
				C74.724,209.268,72.271,206.196,68.032,206.196z"/>
			<path fill="#767675" d="M95.676,224.455l-8.315-13.234c-0.891-1.448-1.634-2.773-2.281-4.075
				c0.086,2.274,0.178,7.736,0.178,11.197v6.112h-2.221v-19.943h3.02l8.17,12.942c0.857,1.387,1.688,2.865,2.458,4.258
				c-0.118-2.664-0.205-8.102-0.205-11.732v-5.468H98.7v19.943H95.676z"/>
			<path fill="#767675" d="M109.2,224.723c-1.482,0-2.9-0.207-4-0.505l0.119-2.214c1.158,0.414,2.695,0.736,4.087,0.736
				c2.577,0,4.739-1.028,4.739-3.747c0-4.731-9.27-2.926-9.27-9.221c0-3.162,2.546-5.522,6.93-5.522c1.24,0,2.395,0.146,3.581,0.383
				l-0.119,2.038c-1.122-0.322-2.458-0.535-3.612-0.535c-2.901,0-4.438,1.362-4.438,3.399c0,4.58,9.265,2.926,9.265,9.16
				C116.481,222.211,113.73,224.723,109.2,224.723z"/>
			<path fill="#767675" d="M130.093,224.723c-6.186,0-7.371-3.461-7.371-6.885v-13.326h2.281v13.119c0,2.864,0.948,5.23,5.268,5.23
				c3.671,0,5.478-1.539,5.478-5.79v-12.56h2.22v12.383C137.968,222.004,135.28,224.723,130.093,224.723z"/>
			<path fill="#767675" d="M145.717,224.455v-19.943h2.274v18.021h7.402v1.922H145.717z"/>
			<path fill="#767675" d="M164.772,206.403v18.052h-2.244v-18.052h-5.985v-1.892h14.244v1.892H164.772z"/>
			<path fill="#767675" d="M176.194,224.455v-19.943h2.281v19.943H176.194z"/>
			<path fill="#767675" d="M199.854,224.455l-8.326-13.234c-0.882-1.448-1.624-2.773-2.274-4.075
				c0.085,2.274,0.176,7.736,0.176,11.197v6.112h-2.22v-19.943h3.017l8.175,12.942c0.857,1.387,1.69,2.865,2.457,4.258
				c-0.122-2.664-0.207-8.102-0.207-11.732v-5.468h2.221v19.943H199.854z"/>
			<path fill="#767675" d="M224.067,207.23c-1.686-0.675-3.553-1.064-5.328-1.064c-4.209,0-7.998,2.719-7.998,8.394
				c0,5.261,3.138,8.211,7.815,8.211c1.453,0,2.7-0.207,3.887-0.59v-7.768h2.274v9.185c-2.014,0.742-4.409,1.125-6.514,1.125
				c-5.925,0-9.859-3.661-9.859-9.871c0-6.052,3.996-10.602,10.632-10.602c1.86,0,3.643,0.292,5.443,0.857L224.067,207.23z"/>
		</g>
		<g>
			<path fill="#92ABB8" d="M92.864,102.242h13.238c10.971,0,19.861-8.89,19.861-19.861c0-10.967-8.891-19.861-19.861-19.861H92.86
				V49.278h13.242c18.282,0,33.104,14.819,33.104,33.103c0,18.282-14.821,33.104-33.104,33.104v13.238H92.86L92.864,102.242z"/>
			<path fill="#767675" d="M172.308,75.764h-13.24V62.525c-10.967,0-19.861,8.889-19.861,19.861
				c0,10.966,8.895,19.861,19.861,19.861h13.24v13.237h-13.24c-18.283,0-33.104-14.822-33.104-33.104
				c0-18.277,14.82-33.1,33.104-33.1h13.237L172.308,75.764z"/>
			<path fill="#1A1A18" d="M139.206,82.381c0,7.453-2.467,14.323-6.629,19.857c-4.15-5.528-6.613-12.413-6.613-19.857
				c0-7.427,2.472-14.306,6.6-19.828C136.722,68.081,139.206,74.933,139.206,82.381"/>
		</g>
	</g>
</g>
</svg>
