<?xml version="1.0" encoding="utf-8"?>
<!-- Generator: Adobe Illustrator 16.0.4, SVG Export Plug-In . SVG Version: 6.00 Build 0)  -->
<!DOCTYPE svg PUBLIC "-//W3C//DTD SVG 1.1//EN" "http://www.w3.org/Graphics/SVG/1.1/DTD/svg11.dtd">
<svg version="1.1" id="Ebene_1" xmlns="http://www.w3.org/2000/svg" xmlns:xlink="http://www.w3.org/1999/xlink" x="0px" y="0px"
	 width="695.382px" height="257.08px" viewBox="0 0 695.382 257.08" enable-background="new 0 0 695.382 257.08"
	 xml:space="preserve">
<line fill="none" stroke="#CCCCCC" stroke-width="2" stroke-linecap="round" stroke-miterlimit="10" x1="251.437" y1="135.5" x2="432.437" y2="135.5"/>
<g>
	<g>
		<path fill="#92ABB8" d="M563.467,47.593c-0.479-0.399-1.176-0.399-1.654,0l-33.816,28.242V65.568h3.24
			c0.713,0,1.289-0.578,1.289-1.289v-5.627c0-0.713-0.576-1.291-1.289-1.291h-24.175c-0.712,0-1.29,0.578-1.29,1.291v5.627
			c0,0.711,0.578,1.289,1.29,1.289h3.241v25.043l-20.355,17c-0.417,0.35-0.571,0.92-0.387,1.431c0.186,0.51,0.67,0.85,1.213,0.85
			h8.582v61.292h-3.745c-0.712,0-1.29,0.576-1.29,1.289v10.312c0,0.713,0.578,1.291,1.29,1.291h46.194v0.045
			c0,0.711,0.576,1.289,1.289,1.289h41.461c0.711,0,1.289-0.578,1.289-1.289v-0.045h46.193c0.713,0,1.29-0.578,1.29-1.291v-10.312
			c0-0.713-0.577-1.289-1.29-1.289h-6.114v-61.292h8.582c0.543,0,1.027-0.34,1.212-0.85c0.186-0.511,0.031-1.081-0.385-1.431
			L563.467,47.593z M630.748,181.496h-44.904v-2.805c0-0.713-0.578-1.29-1.289-1.29h-1.08v-2.856c0-0.295-0.104-0.564-0.271-0.783
			h41.43h6.115V181.496z M544.383,182.83v-2.85h1.08h36.722h1.079v2.85H544.383z M551.49,135.953h24.667v33.156H551.49V135.953z
			 M548.134,133.373v-2.453h0.882h29.616h0.882v2.453h-2.066h-27.246H548.134z M574.281,124.885h-20.916v-1.271h20.916V124.885z
			 M552.076,127.464h23.495h1.771v0.876h-27.035v-0.876H552.076z M550.01,171.689h0.191h27.246h0.189v1.566H550.01V171.689z
			 M580.895,177.401h-34.143v-1.566h1.969h30.207h1.967V177.401z M496.9,173.762h3.745h43.799c-0.167,0.219-0.271,0.488-0.271,0.783
			v2.856h-1.079c-0.713,0-1.289,0.577-1.289,1.29v2.805H496.9V173.762z M580.217,171.184v-0.785c0-0.711-0.578-1.289-1.289-1.289
			h-0.191v-33.156h2.066c0.713,0,1.29-0.578,1.29-1.29v-5.034c0-0.711-0.577-1.289-1.29-1.289h-0.881v-2.165
			c0-0.713-0.578-1.29-1.29-1.29h-1.771v-2.561c0-0.712-0.578-1.29-1.29-1.29h-23.495c-0.713,0-1.289,0.578-1.289,1.29v2.561h-1.771
			c-0.712,0-1.289,0.577-1.289,1.29v2.165h-0.883c-0.712,0-1.289,0.578-1.289,1.289v5.034c0,0.712,0.577,1.29,1.289,1.29h2.067
			v33.156h-0.19c-0.713,0-1.29,0.578-1.29,1.289v0.785h-45.495v-61.96l60.704-48.331l60.704,48.332v61.959H580.217z
			 M625.084,107.312l-61.641-49.077c-0.471-0.374-1.137-0.374-1.607,0l-61.642,49.077h-5.864l18.085-15.104
			c0.001-0.002,0.003-0.002,0.004-0.004l15.114-12.623c0,0,0.001-0.002,0.002-0.002l35.104-29.317l68.31,57.05H625.084z
			 M512.882,65.568h12.534v12.421l-12.534,10.469V65.568z M508.352,59.941h21.596v3.047h-21.596V59.941z"/>
		<path fill="#92ABB8" d="M577.348,82.831h-26.653c-0.712,0-1.29,0.577-1.29,1.29v23.692c0,0.712,0.578,1.289,1.29,1.289h26.653
			c0.713,0,1.29-0.577,1.29-1.289V84.121C578.638,83.408,578.061,82.831,577.348,82.831z M576.059,85.41v6.602h-10.748V85.41
			H576.059z M565.311,94.592h10.748v11.932h-10.748V94.592z M551.984,85.41h10.747v21.113h-10.747V85.41z"/>
		<path fill="#92ABB8" d="M618.217,124.885h-26.652c-0.713,0-1.291,0.577-1.291,1.29v23.69c0,0.713,0.578,1.291,1.291,1.291h26.652
			c0.713,0,1.289-0.578,1.289-1.291v-23.69C619.506,125.462,618.93,124.885,618.217,124.885z M616.928,127.464v6.602H606.18v-6.602
			H616.928z M606.18,136.645h10.748v11.932H606.18V136.645z M592.854,127.464h10.747v21.112h-10.747V127.464z"/>
		<path fill="#92ABB8" d="M536.183,124.885h-26.653c-0.712,0-1.289,0.577-1.289,1.29v23.69c0,0.713,0.577,1.291,1.289,1.291h26.653
			c0.712,0,1.29-0.578,1.29-1.291v-23.69C537.473,125.462,536.895,124.885,536.183,124.885z M534.893,127.464v6.602h-10.746v-6.602
			H534.893z M524.146,136.645h10.746v11.932h-10.746V136.645z M510.819,127.464h10.747v21.112h-10.747V127.464z"/>
	</g>
	<text transform="matrix(1 0 0 1 484.7451 224.7754)" fill="#767675" font-family="'OpenSans'" font-size="29.531">Ihr Kunde</text>
</g>
<g>
	<g>
		<g>
			<path fill="#92ABB8" d="M37.062,184.919c-0.311,0-0.85,0-1.392-0.042v8.631h-6.013v-26.002c2.235-0.115,4.703-0.194,7.404-0.194
				c6.627,0,10.25,3.005,10.25,8.357C47.312,180.717,43.688,184.919,37.062,184.919z M36.942,172.202c-0.424,0-0.849,0-1.272,0.042
				v7.627c0.388,0.037,0.734,0.079,1.044,0.079c2.505-0.042,4.394-1.466,4.394-4.008C41.107,173.746,39.912,172.202,36.942,172.202z
				"/>
			<path fill="#92ABB8" d="M64.818,193.508l-6.167-10.17h-0.229v10.17h-6.017v-26.002c2.198-0.158,5.013-0.194,8.134-0.194
				c6.131,0,9.83,2.195,9.83,7.706c0,3.503-2.271,6.356-5.743,7.201c0.693,1.004,1.387,1.965,2.003,2.932l5.515,8.357H64.818z
				 M60.079,172.244c-0.616,0-1.31,0.036-1.656,0.079v6.66c0.306,0.036,0.926,0.079,1.501,0.079c2.546,0,4.165-1.351,4.165-3.546
				C64.089,173.473,62.894,172.244,60.079,172.244z"/>
			<path fill="#92ABB8" d="M87.028,194.006c-8.055,0-11.987-5.005-11.987-13.174c0-8.473,5.821-13.831,12.914-13.831
				c6.86,0,11.987,3.972,11.987,13.102C99.942,188.654,94.241,194.006,87.028,194.006z M87.494,172.476
				c-3.124,0-6.09,2.427-6.09,7.857c0,5.006,1.848,8.169,5.972,8.169c2.855,0,6.208-2.123,6.208-8.017
				C93.584,175.249,91.463,172.476,87.494,172.476z"/>
			<path fill="#92ABB8" d="M111.826,172.627v5.548h7.864v4.932h-7.864v10.401h-6.013v-26.002h14.338v5.121H111.826z"/>
			<path fill="#92ABB8" d="M126.907,193.508v-26.002h14.646v5.042h-8.631v5.164h8.169v4.896h-8.169v5.735h8.631v5.164H126.907z"/>
			<path fill="#92ABB8" d="M158.905,193.854c-9.598,0-12.177-6.508-12.177-12.408c0-8.43,4.586-14.135,13.18-14.135
				c1.812,0,3.704,0.231,5.322,0.657l-0.693,5.431c-1.466-0.426-3.126-0.693-4.744-0.693c-4.203,0-6.472,3.041-6.472,7.743
				c0,5.121,2.08,7.938,6.781,7.938c1.351,0,3.315-0.347,4.55-0.925l0.693,5.353C163.454,193.471,161.144,193.854,158.905,193.854z"
				/>
			<path fill="#92ABB8" d="M181.458,172.627v20.881h-5.974v-20.881h-6.246v-5.121h18.466v5.121H181.458z"/>
			<path fill="#92ABB8" d="M202.118,194.006c-8.053,0-11.987-5.005-11.987-13.174c0-8.473,5.82-13.831,12.906-13.831
				c6.866,0,11.994,3.972,11.994,13.102C215.031,188.654,209.326,194.006,202.118,194.006z M202.581,172.476
				c-3.12,0-6.089,2.427-6.089,7.857c0,5.006,1.85,8.169,5.973,8.169c2.853,0,6.204-2.123,6.204-8.017
				C208.669,175.249,206.546,172.476,202.581,172.476z"/>
		</g>
		<g>
			<path fill="#767675" d="M39.24,223.748c-6.186,0-9.032-3.838-9.032-9.75c0-5.997,2.906-10.607,9.712-10.607
				c1.542,0,3.143,0.237,4.62,0.59l-0.236,2.099c-1.656-0.499-3.198-0.767-4.768-0.767c-4.857,0-6.869,3.783-6.869,8.333
				c0,5.14,2.28,8.096,7.166,8.096c1.542,0,3.467-0.444,4.707-1.064l0.238,2.007C43.241,223.334,41.315,223.748,39.24,223.748z"/>
			<path fill="#767675" d="M57.555,223.778c-5.979,0-8.85-3.99-8.85-10.018c0-6.708,4.229-10.455,9.384-10.455
				c5.419,0,8.822,3.601,8.822,10.012C66.911,219.995,62.678,223.778,57.555,223.778z M57.792,205.252
				c-3.521,0-6.664,2.871-6.664,8.096c0,4.993,2.162,8.448,6.664,8.448c3.494,0,6.691-2.835,6.691-8.12
				C64.483,208.323,62.03,205.252,57.792,205.252z"/>
			<path fill="#767675" d="M85.436,223.511l-8.315-13.234c-0.891-1.448-1.634-2.773-2.281-4.075
				c0.086,2.274,0.178,7.736,0.178,11.197v6.112h-2.221v-19.943h3.02l8.17,12.942c0.857,1.387,1.688,2.865,2.458,4.258
				c-0.118-2.664-0.205-8.102-0.205-11.732v-5.468h2.222v19.943H85.436z"/>
			<path fill="#767675" d="M98.96,223.778c-1.482,0-2.9-0.207-4-0.505l0.119-2.214c1.158,0.414,2.695,0.736,4.087,0.736
				c2.577,0,4.739-1.028,4.739-3.747c0-4.731-9.27-2.926-9.27-9.221c0-3.162,2.546-5.522,6.93-5.522c1.24,0,2.395,0.146,3.581,0.383
				l-0.119,2.038c-1.122-0.322-2.458-0.535-3.612-0.535c-2.901,0-4.438,1.362-4.438,3.399c0,4.58,9.265,2.926,9.265,9.16
				C106.241,221.267,103.49,223.778,98.96,223.778z"/>
			<path fill="#767675" d="M119.853,223.778c-6.186,0-7.371-3.461-7.371-6.885v-13.326h2.281v13.119c0,2.864,0.948,5.23,5.268,5.23
				c3.671,0,5.478-1.539,5.478-5.79v-12.56h2.22v12.383C127.728,221.06,125.04,223.778,119.853,223.778z"/>
			<path fill="#767675" d="M135.477,223.511v-19.943h2.274v18.021h7.402v1.922H135.477z"/>
			<path fill="#767675" d="M154.532,205.459v18.052h-2.244v-18.052h-5.985v-1.892h14.244v1.892H154.532z"/>
			<path fill="#767675" d="M165.954,223.511v-19.943h2.281v19.943H165.954z"/>
			<path fill="#767675" d="M189.613,223.511l-8.326-13.234c-0.882-1.448-1.624-2.773-2.274-4.075
				c0.085,2.274,0.176,7.736,0.176,11.197v6.112h-2.22v-19.943h3.017l8.175,12.942c0.857,1.387,1.69,2.865,2.457,4.258
				c-0.122-2.664-0.207-8.102-0.207-11.732v-5.468h2.221v19.943H189.613z"/>
			<path fill="#767675" d="M213.827,206.286c-1.686-0.675-3.553-1.064-5.328-1.064c-4.209,0-7.998,2.719-7.998,8.394
				c0,5.261,3.138,8.211,7.815,8.211c1.453,0,2.7-0.207,3.887-0.59v-7.768h2.274v9.185c-2.014,0.742-4.409,1.125-6.514,1.125
				c-5.925,0-9.859-3.661-9.859-9.871c0-6.052,3.996-10.602,10.632-10.602c1.86,0,3.643,0.292,5.443,0.857L213.827,206.286z"/>
		</g>
		<g>
			<path fill="#92ABB8" d="M82.624,101.298h13.238c10.971,0,19.861-8.89,19.861-19.861c0-10.967-8.891-19.861-19.861-19.861H82.62
				V48.334h13.242c18.282,0,33.104,14.819,33.104,33.103c0,18.282-14.821,33.104-33.104,33.104v13.238H82.62L82.624,101.298z"/>
			<path fill="#767675" d="M162.067,74.819h-13.24V61.581c-10.967,0-19.861,8.889-19.861,19.861
				c0,10.966,8.895,19.861,19.861,19.861h13.24v13.237h-13.24c-18.283,0-33.104-14.822-33.104-33.104
				c0-18.277,14.82-33.1,33.104-33.1h13.237L162.067,74.819z"/>
			<path fill="#1A1A18" d="M128.966,81.437c0,7.453-2.467,14.323-6.629,19.857c-4.15-5.528-6.613-12.413-6.613-19.857
				c0-7.427,2.472-14.306,6.6-19.828C126.481,67.137,128.966,73.988,128.966,81.437"/>
		</g>
	</g>
</g>
</svg>
