<?xml version="1.0" encoding="utf-8"?>
<!-- Generator: Adobe Illustrator 16.0.4, SVG Export Plug-In . SVG Version: 6.00 Build 0)  -->
<!DOCTYPE svg PUBLIC "-//W3C//DTD SVG 1.1//EN" "http://www.w3.org/Graphics/SVG/1.1/DTD/svg11.dtd">
<svg version="1.1" id="Ebene_1" xmlns="http://www.w3.org/2000/svg" xmlns:xlink="http://www.w3.org/1999/xlink" x="0px" y="0px"
	 width="1111.444px" height="425.979px" viewBox="0 0 1111.444 425.979" enable-background="new 0 0 1111.444 425.979"
	 xml:space="preserve">
<line fill="none" stroke="#CCCCCC" stroke-width="2" stroke-linecap="round" stroke-miterlimit="10" x1="686.881" y1="304.399" x2="867.881" y2="304.399"/>
<line fill="none" stroke="#CCCCCC" stroke-width="2" stroke-linecap="round" stroke-miterlimit="10" x1="244.881" y1="304.399" x2="425.881" y2="304.399"/>
<g>
	<path fill="#92ABB8" d="M993.094,222.327c-0.354,5.699-0.644,12.772-0.921,20.957l-21.705,6.823
		c-0.059,0.019-0.089,0.058-0.142,0.085l-1.437,0.021c-0.552,0.008-0.989,0.491-0.983,1.044c0.008,0.548,0.458,1.143,1.004,1.143
		c0.004,0,0.009,0,0.014,0l0.96-0.015c0,0.005-0.003,0.01-0.003,0.015v3v9v2c-0.553,0-1,0.447-1,1v1c0,0.553,0.447,1,1,1h2
		c0.553,0,1-0.447,1-1v-1c0-0.553-0.447-1-1-1v-2v-9v-3c0-0.017-0.009-0.03-0.01-0.046l20.089-0.313
		c-0.167,4.9-0.506,10.873-0.987,17.563l-7.788,2.601c-0.002,0.001-7.216,2.411-7.216,2.411c-0.034,0.012-0.059,0.037-0.091,0.052
		l-1.485,0.009c-0.552,0.006-0.995,0.263-0.99,0.815c0.005,0.549,0.452,0.908,1,0.908c0.003,0,0.007,0,0.01,0l0.469-0.003
		c0,0.001,0,0.002,0,0.003v3v9v2c-0.553,0-1,0.447-1,1v1c0,0.553,0.447,1,1,1h2c0.553,0,1-0.447,1-1v-1c0-0.553-0.447-1-1-1v-2v-9
		v-2.981l0.106-0.035l13.475-0.087c-2.022,25.212-5.716,57.892-9.794,81.854c-0.186,1.089,0.547,2.122,1.636,2.308
		c0.114,0.02,0.227,0.028,0.338,0.028c0.958,0,1.804-0.689,1.97-1.664c0.617-3.624,1.224-7.456,1.818-11.422h27.501
		c0.685,3.969,1.344,7.799,1.961,11.422c0.166,0.975,1.012,1.664,1.97,1.664c0.111,0,0.224-0.009,0.338-0.028
		c1.089-0.186,1.821-1.218,1.636-2.308c-0.774-4.551-1.615-9.42-2.491-14.494c-3.757-21.761-8.123-47.065-10.774-67.463
		l14.372-0.092c-0.031,0.096-0.061,0.192-0.061,0.299v3v9v2c-0.553,0-1,0.447-1,1v1c0,0.553,0.447,1,1,1h2c0.553,0,1-0.447,1-1v-1
		c0-0.553-0.447-1-1-1v-2v-9v-3c0-0.11-0.029-0.212-0.062-0.311l0.231-0.002c0.552-0.006,0.995-0.298,0.99-0.851
		c-0.005-0.549-0.452-0.837-1-0.837c-0.003,0-0.007,0-0.01,0l-0.543,0.003c-0.117-0.12-0.255-0.223-0.429-0.271l-16.314-4.62
		c-0.785-6.733-1.324-12.74-1.52-17.662l20.656-0.322v2.873v9v2c-0.553,0-1,0.447-1,1v1c0,0.553,0.447,1,1,1h2c0.553,0,1-0.447,1-1
		v-1c0-0.553-0.447-1-1-1v-2v-9v-2.904l0.724-0.012c0.552-0.008,0.993-0.593,0.986-1.146c-0.008-0.548-0.454-0.938-1-0.938
		c-0.004,0-0.009,0-0.014,0l-1.414,0.02c-0.037-0.016-0.065-0.043-0.104-0.054l-22.136-6.296
		c-0.335-8.178-0.821-15.177-1.313-20.788l12.308-0.06c-0.012,0.06-0.036,0.114-0.036,0.178v3v9v2c-0.553,0-1,0.447-1,1v1
		c0,0.553,0.447,1,1,1h2c0.553,0,1-0.447,1-1v-1c0-0.553-0.447-1-1-1v-2v-9v-3c0-0.066-0.025,0-0.038,0h0.087
		c0.553,0,0.997-0.424,0.992-0.976c-0.005-0.55-0.451-1.024-1-1.024c-0.003,0-0.006,0-0.008,0l-0.102,0.001
		c-0.063-0.032-0.12-0.074-0.191-0.093l-14.557-3.723c-0.528-5.044-0.996-8.271-1.206-9.409c-0.112-0.998-0.95-1.776-1.978-1.776
		c0,0-2.379,0.037-2.557,0.088c-0.861,0.086-1.594,0.717-1.764,1.607c-0.255,1.34-0.604,4.628-0.971,9.542l-13.498,3.834
		c-0.091,0.025-0.165,0.077-0.242,0.125l-1.533,0.008c-0.553,0.005-0.997,0.347-0.992,0.898c0.004,0.396,0.24,0.68,0.574,0.812
		c-0.003,0.029-0.018,0.055-0.018,0.085v3v9v2c-0.553,0-1,0.447-1,1v1c0,0.553,0.447,1,1,1h2c0.553,0,1-0.447,1-1v-1
		c0-0.553-0.447-1-1-1v-2v-9v-3L993.094,222.327z M1012.887,274.427c0,0.011,0.005,0.019,0.006,0.029h-0.065L1012.887,274.427z
		 M1010.045,273.621l-0.017-0.819l1.051,0.298L1010.045,273.621z M1008.061,274.484l-1.121,0.007l1.104-0.92L1008.061,274.484z
		 M986.91,273.799l-0.861-0.444l0.868-0.29L986.91,273.799z M988.911,273.746l1.044,0.841l-1.053,0.007L988.911,273.746z
		 M988.116,249.946c-0.032-0.021-0.053-0.051-0.087-0.067l-0.148-0.074v-2.484l3.37,2.583L988.116,249.946z M980.881,248.943v0.886
		c-0.016-0.005-0.027-0.018-0.043-0.021l-1.465-0.391L980.881,248.943z M982.881,249.541l0.93,0.465l-0.93,0.013V249.541z
		 M984.123,247.925l1.758-0.552v1.431L984.123,247.925z M988.881,220.381l-0.635-0.146l0.635-0.181V220.381z M990.881,220.488
		l0.097,0.049l-0.097,0.001V220.488z M1006.881,220.013v-0.132l0.257,0.065L1006.881,220.013z M1004.894,220.462l-0.599,0.004
		l0.586-0.329v0.262C1004.881,220.421,1004.893,220.441,1004.894,220.462z M989.18,327.399c0.002-0.021,0.005-0.042,0.008-0.063
		l10.309-13.744l10.957,13.574c0.014,0.078,0.026,0.155,0.04,0.233H989.18z M996.367,239.469l1.664-1.099l1.85,1.179
		c0,0.001,0,0.003,0,0.005l-1.725,0.905l-1.762-0.906C996.396,239.525,996.367,239.498,996.367,239.469z M997.982,216.022
		c0.007,0.062,0.014,0.126,0.021,0.188c-0.009-0.004-0.018-0.006-0.026-0.009c-0.047-0.018-0.09-0.046-0.139-0.057l0.129-0.139
		L997.982,216.022z M997.697,219.02l0.688,1.024c0.015,0.151,0.028,0.299,0.043,0.453l-1.098,0.006
		c0.021-0.319,0.042-0.638,0.063-0.946L997.697,219.02z M997.97,224.873l0.9,0.764c0.017,0.214,0.034,0.424,0.051,0.641
		l-0.907,0.663l-1.029-0.715c0.01-0.185,0.02-0.372,0.03-0.555L997.97,224.873z M996.768,230.327l1.277-0.933l1.164,0.808
		c0.007,0.111,0.015,0.223,0.022,0.335l-1.207,0.819l-1.263-0.917C996.764,230.403,996.766,230.364,996.768,230.327z
		 M997.985,233.799l1.513,1.1l-1.551,1.062l-1.398-0.921c0.004-0.092,0.008-0.183,0.012-0.273L997.985,233.799z M999.334,244.34
		l-1.338,1.264l-1.453-1.231L999.334,244.34z M1000.048,246.417c0.011,0.315,0.021,0.637,0.031,0.955l-0.55-0.466L1000.048,246.417z
		 M999.831,249.784l-3.397,0.047l1.634-1.543L999.831,249.784z M1000.257,252.719c0.008,0.172,0.019,0.353,0.027,0.526l-0.445-0.259
		L1000.257,252.719z M1000.881,255.638c0,0.003,0,0.006,0,0.009l-2.338,1.237l-2.662-1.308c0-0.008,0-0.017,0-0.025l2.32-1.354
		L1000.881,255.638z M995.717,257.785l0.526,0.279l-0.56,0.324C995.694,258.189,995.706,257.981,995.717,257.785z M995.428,262.91
		l0.383,0.203l-0.409,0.226C995.41,263.195,995.419,263.052,995.428,262.91z M995.611,260.74l2.714-1.569l2.364,1.255l-2.787,1.535
		L995.611,260.74z M1000.365,257.99l0.213-0.123c0.006,0.082,0.013,0.164,0.019,0.246L1000.365,257.99z M1000.982,262.547
		c0.035,0.37,0.069,0.736,0.106,1.112l-1.08-0.575L1000.982,262.547z M995.25,265.706l2.667-1.47l3.419,1.823
		c0.012,0.109,0.021,0.214,0.033,0.323l-2.855,2.484l-3.286-2.822C995.235,265.929,995.242,265.82,995.25,265.706z
		 M1001.941,271.399c0.019,0.154,0.035,0.304,0.054,0.459l-0.534-0.459H1001.941z M1000.95,269.399l0.688-0.599
		c0.022,0.199,0.045,0.398,0.068,0.599H1000.95z M1002.023,274.518l-7.003,0.04l3.502-3.047L1002.023,274.518z M1003.504,283.399
		h-9.531l4.685-6.444L1003.504,283.399z M995.898,287.422l-0.018-0.019v-0.005h-0.005l-1.946-2h3.28L995.898,287.422z
		 M1001.962,287.393l-1.366-1.994h3.125L1001.962,287.393z M1004.371,289.399c0.094,0.64,0.19,1.284,0.287,1.929l-1.322-1.929
		H1004.371z M994.475,276.27l2.219-0.015l-1.15,1.583l-1.074-1.489C994.471,276.323,994.473,276.296,994.475,276.27z
		 M992.665,296.399c0.013-0.123,0.023-0.245,0.036-0.368l6.2-9.565l6.442,9.403c0.027,0.176,0.055,0.354,0.082,0.53
		 M995.624,300.648l-2.414-2.249h3.974L995.624,300.648z M1003.454,301.544l-2.334-3.146h4.529L1003.454,301.544z M1006.166,301.154
		c0.059,0.372,0.117,0.743,0.176,1.117l-0.951-0.005L1006.166,301.154z M1006.661,304.272c0.108,0.678,0.217,1.355,0.326,2.034
		l-1.514-2.04L1006.661,304.272z M993.496,301.399h-1.338c0.039-0.379,0.079-0.759,0.117-1.138L993.496,301.399z M991.082,311.399
		c0.031-0.274,0.061-0.549,0.092-0.823l7.967-11.489l8.544,11.515c0.043,0.267,0.087,0.532,0.13,0.798 M1001.912,313.399h6.139
		l-2.428,4.598L1001.912,313.399z M1007.674,318.399l0.988-1.872c0.104,0.624,0.207,1.248,0.312,1.872H1007.674z M1009.309,320.399
		c0.154,0.913,0.308,1.824,0.461,2.735l-2.208-2.735H1009.309z M997.142,313.399l-3.345,4.46l-2.745-4.46H997.142z
		 M1012.034,336.399h-2.582l1.976-3.527C1011.631,334.053,1011.833,335.229,1012.034,336.399z M1001.812,277.823l-1.197-1.592
		l1.928-0.013c0.013,0.092,0.024,0.184,0.036,0.275L1001.812,277.823z M996.533,246.986l-0.435,0.41
		c0.008-0.254,0.016-0.507,0.023-0.759L996.533,246.986z M995.997,253.067l-0.073,0.047c0.001-0.028,0.002-0.059,0.003-0.087
		L995.997,253.067z M996.063,269.399h-1.067c0.021-0.291,0.04-0.576,0.061-0.865L996.063,269.399z M994.85,271.399h0.754
		l-0.805,0.701C994.816,271.863,994.832,271.634,994.85,271.399z M993.338,289.399h1.279l-1.498,2.311
		C993.193,290.937,993.267,290.164,993.338,289.399z M991.949,303.399h1.768l-2.088,3.01
		C991.737,305.404,991.845,304.4,991.949,303.399z M990.518,316.348l1.263,2.051h-1.503
		C990.358,317.715,990.438,317.032,990.518,316.348z M991.892,320.399l-2.207,2.941c0.12-0.979,0.237-1.96,0.355-2.941H991.892z
		 M988.486,332.758l2.136,3.641h-2.623C988.163,335.192,988.326,333.979,988.486,332.758z M989.786,338.399l-2.446,2.765
		c0.129-0.917,0.259-1.837,0.387-2.765H989.786z M992.389,335.458l-3.48-5.935c0.005-0.041,0.01-0.083,0.016-0.125h8.829
		L992.389,335.458z M1010.834,329.399c0.02,0.113,0.039,0.227,0.058,0.339l-3.2,5.715l-5.521-6.054H1010.834z M1012.378,338.399
		c0.156,0.906,0.312,1.808,0.467,2.704l-2.466-2.704H1012.378z M1015.881,248.978v-0.429l0.873,0.248L1015.881,248.978z
		 M1011.741,247.372l-2.86,1.666v-2.479L1011.741,247.372z M1006.881,249.686l-2.254,0.031l2.254-1.878V249.686z M1013.881,248.44
		v1.024c-0.056,0.035-0.098,0.082-0.145,0.126l-1.876,0.026L1013.881,248.44z M1006.205,245.797l-2.117,1.765
		c-0.026-0.808-0.054-1.604-0.083-2.391L1006.205,245.797z M1003.014,218.892l-0.68,0.381c-0.02-0.193-0.037-0.38-0.056-0.569
		L1003.014,218.892z M993.386,219.517l-0.937-0.477l0.988-0.28C993.42,219.009,993.402,219.261,993.386,219.517z M992.079,248.017
		l-2.397-1.837l2.477-0.778C992.131,246.263,992.104,247.132,992.079,248.017z M990.746,272.657l-0.763-0.615l0.831-0.278
		C990.792,272.059,990.77,272.358,990.746,272.657z M982.448,274.558l-0.002,0.071l-0.216,0.001L982.448,274.558z M999.951,329.935
		l13.525,14.829c0.037,0.213,0.072,0.422,0.109,0.635h-26.856c0.03-0.209,0.061-0.422,0.091-0.631 M1014.871,274.446
		c0.001-0.017,0.01-0.03,0.01-0.047v-0.223l0.933,0.264L1014.871,274.446z M1006.904,271.917l-0.793,0.66
		c-0.037-0.305-0.076-0.614-0.113-0.916L1006.904,271.917z"/>
	<text transform="matrix(1 0 0 1 912.7656 393.6743)" fill="#767675" font-family="'OpenSans'" font-size="29.531">Fremdnetz</text>
</g>
<g>
	<g>
		<path fill="#92ABB8" d="M115.234,216.492c-0.479-0.399-1.175-0.399-1.653,0l-33.817,28.242v-10.267h3.24
			c0.712,0,1.29-0.578,1.29-1.289v-5.627c0-0.713-0.577-1.291-1.29-1.291H58.829c-0.712,0-1.29,0.578-1.29,1.291v5.627
			c0,0.711,0.578,1.289,1.29,1.289h3.241v25.043l-20.355,17c-0.417,0.35-0.571,0.92-0.386,1.431c0.185,0.51,0.669,0.85,1.212,0.85
			h8.582v61.292h-3.745c-0.712,0-1.29,0.576-1.29,1.289v10.312c0,0.713,0.577,1.291,1.29,1.291h46.194v0.045
			c0,0.711,0.577,1.289,1.29,1.289h41.46c0.712,0,1.29-0.578,1.29-1.289v-0.045h46.193c0.712,0,1.29-0.578,1.29-1.291v-10.312
			c0-0.713-0.578-1.289-1.29-1.289h-6.114v-61.292h8.582c0.543,0,1.027-0.34,1.212-0.85c0.185-0.511,0.031-1.081-0.385-1.431
			L115.234,216.492z M182.515,350.395h-44.904v-2.805c0-0.713-0.578-1.29-1.29-1.29h-1.08v-2.856c0-0.295-0.104-0.564-0.272-0.783
			h41.431h6.114V350.395z M96.151,351.729v-2.85h1.079h36.722h1.08v2.85H96.151z M103.258,304.852h24.667v33.156h-24.667V304.852z
			 M99.901,302.272v-2.453h0.882h29.616h0.881v2.453h-2.066h-27.246H99.901z M126.049,293.784h-20.916v-1.271h20.916V293.784z
			 M103.844,296.363h23.495h1.771v0.876h-27.036v-0.876H103.844z M101.778,340.588h0.191h27.246h0.19v1.566h-27.627V340.588z
			 M132.663,346.3H98.52v-1.566h1.968h30.207h1.968V346.3z M48.667,342.661h3.746h43.799c-0.167,0.219-0.271,0.488-0.271,0.783
			v2.856h-1.079c-0.712,0-1.29,0.577-1.29,1.29v2.805H48.667V342.661z M131.984,340.083v-0.785c0-0.711-0.578-1.289-1.29-1.289
			h-0.191v-33.156h2.067c0.712,0,1.29-0.578,1.29-1.29v-5.034c0-0.711-0.578-1.289-1.29-1.289h-0.882v-2.165
			c0-0.713-0.577-1.29-1.29-1.29h-1.771v-2.561c0-0.712-0.578-1.29-1.29-1.29h-23.495c-0.712,0-1.29,0.578-1.29,1.29v2.561h-1.771
			c-0.712,0-1.29,0.577-1.29,1.29v2.165h-0.882c-0.712,0-1.29,0.578-1.29,1.289v5.034c0,0.712,0.577,1.29,1.29,1.29h2.067v33.156
			h-0.191c-0.712,0-1.29,0.578-1.29,1.289v0.785H53.703v-61.96l60.705-48.331l60.704,48.332v61.959H131.984z M176.852,276.211
			l-61.641-49.077c-0.471-0.374-1.136-0.374-1.607,0l-61.642,49.077h-5.865l18.085-15.104c0.001-0.002,0.002-0.002,0.004-0.004
			l15.115-12.623c0,0,0-0.002,0.001-0.002l35.105-29.317l68.31,57.05H176.852z M64.649,234.467h12.535v12.421l-12.535,10.469
			V234.467z M60.119,228.84h21.595v3.047H60.119V228.84z"/>
		<path fill="#92ABB8" d="M129.115,251.73h-26.653c-0.712,0-1.29,0.577-1.29,1.29v23.692c0,0.712,0.578,1.289,1.29,1.289h26.653
			c0.712,0,1.29-0.577,1.29-1.289V253.02C130.405,252.307,129.828,251.73,129.115,251.73z M127.826,254.309v6.602h-10.747v-6.602
			H127.826z M117.079,263.491h10.747v11.932h-10.747V263.491z M103.752,254.309h10.747v21.113h-10.747V254.309z"/>
		<path fill="#92ABB8" d="M169.984,293.784h-26.653c-0.712,0-1.29,0.577-1.29,1.29v23.69c0,0.713,0.578,1.291,1.29,1.291h26.653
			c0.712,0,1.29-0.578,1.29-1.291v-23.69C171.274,294.361,170.697,293.784,169.984,293.784z M168.695,296.363v6.602h-10.748v-6.602
			H168.695z M157.947,305.543h10.748v11.932h-10.748V305.543z M144.621,296.363h10.747v21.112h-10.747V296.363z"/>
		<path fill="#92ABB8" d="M87.95,293.784H61.297c-0.712,0-1.29,0.577-1.29,1.29v23.69c0,0.713,0.578,1.291,1.29,1.291H87.95
			c0.712,0,1.29-0.578,1.29-1.291v-23.69C89.24,294.361,88.663,293.784,87.95,293.784z M86.661,296.363v6.602H75.914v-6.602H86.661z
			 M75.914,305.543h10.747v11.932H75.914V305.543z M62.587,296.363h10.747v21.112H62.587V296.363z"/>
	</g>
	<text transform="matrix(1 0 0 1 36.5132 393.6743)" fill="#767675" font-family="'OpenSans'" font-size="29.531">Ihr Kunde</text>
</g>
<g>
	<g>
		<g>
			<path fill="#92ABB8" d="M470.8,354.262c-0.31,0-0.849,0-1.391-0.042v8.631h-6.012v-26.002c2.235-0.115,4.703-0.194,7.403-0.194
				c6.628,0,10.25,3.005,10.25,8.357C481.05,350.06,477.428,354.262,470.8,354.262z M470.682,341.545c-0.424,0-0.849,0-1.272,0.042
				v7.627c0.388,0.037,0.734,0.079,1.044,0.079c2.504-0.042,4.393-1.466,4.393-4.008
				C474.847,343.089,473.651,341.545,470.682,341.545z"/>
			<path fill="#92ABB8" d="M498.558,362.851l-6.167-10.17h-0.229v10.17h-6.017v-26.002c2.199-0.158,5.013-0.194,8.133-0.194
				c6.131,0,9.831,2.195,9.831,7.706c0,3.503-2.272,6.356-5.743,7.201c0.693,1.004,1.387,1.965,2.002,2.932l5.515,8.357H498.558z
				 M493.818,341.587c-0.616,0-1.31,0.036-1.656,0.079v6.66c0.306,0.036,0.926,0.079,1.501,0.079c2.545,0,4.165-1.351,4.165-3.546
				C497.828,342.816,496.633,341.587,493.818,341.587z"/>
			<path fill="#92ABB8" d="M520.768,363.349c-8.056,0-11.988-5.005-11.988-13.174c0-8.473,5.821-13.831,12.914-13.831
				c6.86,0,11.988,3.972,11.988,13.102C533.682,357.998,527.98,363.349,520.768,363.349z M521.233,341.819
				c-3.125,0-6.09,2.427-6.09,7.857c0,5.006,1.848,8.169,5.971,8.169c2.856,0,6.208-2.123,6.208-8.017
				C527.323,344.592,525.202,341.819,521.233,341.819z"/>
			<path fill="#92ABB8" d="M545.565,341.97v5.548h7.864v4.932h-7.864v10.401h-6.013v-26.002h14.337v5.121H545.565z"/>
			<path fill="#92ABB8" d="M560.646,362.851v-26.002h14.646v5.042h-8.631v5.164h8.169v4.896h-8.169v5.735h8.631v5.164H560.646z"/>
			<path fill="#92ABB8" d="M592.645,363.198c-9.598,0-12.177-6.508-12.177-12.408c0-8.43,4.586-14.135,13.18-14.135
				c1.812,0,3.704,0.231,5.322,0.657l-0.693,5.431c-1.466-0.426-3.126-0.693-4.744-0.693c-4.203,0-6.472,3.041-6.472,7.743
				c0,5.121,2.08,7.938,6.781,7.938c1.351,0,3.315-0.347,4.55-0.925l0.693,5.353C597.193,362.814,594.883,363.198,592.645,363.198z"
				/>
			<path fill="#92ABB8" d="M615.197,341.97v20.881h-5.974V341.97h-6.246v-5.121h18.466v5.121H615.197z"/>
			<path fill="#92ABB8" d="M635.857,363.349c-8.053,0-11.987-5.005-11.987-13.174c0-8.473,5.82-13.831,12.906-13.831
				c6.866,0,11.994,3.972,11.994,13.102C648.771,357.998,643.065,363.349,635.857,363.349z M636.32,341.819
				c-3.12,0-6.089,2.427-6.089,7.857c0,5.006,1.85,8.169,5.973,8.169c2.853,0,6.204-2.123,6.204-8.017
				C642.408,344.592,640.285,341.819,636.32,341.819z"/>
		</g>
		<g>
			<path fill="#767675" d="M472.979,393.091c-6.186,0-9.032-3.838-9.032-9.75c0-5.997,2.906-10.607,9.712-10.607
				c1.542,0,3.143,0.237,4.621,0.59l-0.237,2.099c-1.656-0.499-3.198-0.767-4.767-0.767c-4.858,0-6.87,3.783-6.87,8.333
				c0,5.14,2.281,8.096,7.167,8.096c1.542,0,3.467-0.444,4.708-1.064l0.237,2.007C476.98,392.677,475.055,393.091,472.979,393.091z"
				/>
			<path fill="#767675" d="M491.294,393.122c-5.98,0-8.85-3.99-8.85-10.018c0-6.708,4.229-10.455,9.383-10.455
				c5.419,0,8.822,3.601,8.822,10.012C500.65,389.338,496.417,393.122,491.294,393.122z M491.531,374.595
				c-3.521,0-6.665,2.871-6.665,8.096c0,4.993,2.162,8.448,6.665,8.448c3.494,0,6.692-2.835,6.692-8.12
				C498.223,377.667,495.769,374.595,491.531,374.595z"/>
			<path fill="#767675" d="M519.175,392.854l-8.316-13.234c-0.89-1.448-1.633-2.773-2.281-4.075
				c0.086,2.274,0.178,7.736,0.178,11.197v6.112h-2.221v-19.943h3.02l8.17,12.942c0.857,1.387,1.688,2.865,2.458,4.258
				c-0.118-2.664-0.205-8.102-0.205-11.732v-5.468h2.222v19.943H519.175z"/>
			<path fill="#767675" d="M532.7,393.122c-1.482,0-2.901-0.207-4-0.505l0.119-2.214c1.159,0.414,2.696,0.736,4.087,0.736
				c2.577,0,4.739-1.028,4.739-3.747c0-4.731-9.269-2.926-9.269-9.221c0-3.162,2.545-5.522,6.929-5.522
				c1.241,0,2.395,0.146,3.581,0.383l-0.119,2.038c-1.122-0.322-2.458-0.535-3.612-0.535c-2.901,0-4.438,1.362-4.438,3.399
				c0,4.58,9.265,2.926,9.265,9.16C539.98,390.61,537.229,393.122,532.7,393.122z"/>
			<path fill="#767675" d="M553.592,393.122c-6.186,0-7.372-3.461-7.372-6.885v-13.326h2.281v13.119c0,2.864,0.949,5.23,5.269,5.23
				c3.67,0,5.477-1.539,5.477-5.79v-12.56h2.22v12.383C561.467,390.403,558.779,393.122,553.592,393.122z"/>
			<path fill="#767675" d="M569.216,392.854v-19.943h2.274v18.021h7.402v1.922H569.216z"/>
			<path fill="#767675" d="M588.271,374.802v18.052h-2.244v-18.052h-5.985v-1.892h14.244v1.892H588.271z"/>
			<path fill="#767675" d="M599.693,392.854v-19.943h2.281v19.943H599.693z"/>
			<path fill="#767675" d="M623.353,392.854l-8.326-13.234c-0.882-1.448-1.624-2.773-2.274-4.075
				c0.085,2.274,0.176,7.736,0.176,11.197v6.112h-2.22v-19.943h3.017l8.175,12.942c0.857,1.387,1.69,2.865,2.457,4.258
				c-0.122-2.664-0.207-8.102-0.207-11.732v-5.468h2.221v19.943H623.353z"/>
			<path fill="#767675" d="M647.566,375.629c-1.686-0.675-3.553-1.064-5.328-1.064c-4.209,0-7.998,2.719-7.998,8.394
				c0,5.261,3.138,8.211,7.815,8.211c1.453,0,2.7-0.207,3.887-0.59v-7.768h2.274v9.185c-2.014,0.742-4.409,1.125-6.514,1.125
				c-5.925,0-9.859-3.661-9.859-9.871c0-6.052,3.996-10.602,10.632-10.602c1.86,0,3.643,0.292,5.443,0.857L647.566,375.629z"/>
		</g>
		<g>
			<path fill="#92ABB8" d="M516.363,270.641h13.238c10.971,0,19.861-8.89,19.861-19.861c0-10.967-8.891-19.861-19.861-19.861
				h-13.242v-13.241h13.242c18.283,0,33.104,14.819,33.104,33.103c0,18.282-14.821,33.104-33.104,33.104v13.238h-13.242
				L516.363,270.641z"/>
			<path fill="#767675" d="M595.807,244.163h-13.24v-13.238c-10.967,0-19.861,8.889-19.861,19.861
				c0,10.966,8.895,19.861,19.861,19.861h13.24v13.237h-13.24c-18.283,0-33.104-14.822-33.104-33.104
				c0-18.277,14.821-33.1,33.104-33.1h13.237L595.807,244.163z"/>
			<path fill="#1A1A18" d="M562.705,250.78c0,7.453-2.467,14.323-6.628,19.857c-4.151-5.528-6.614-12.413-6.614-19.857
				c0-7.427,2.472-14.306,6.601-19.828C560.221,236.48,562.705,243.332,562.705,250.78"/>
		</g>
	</g>
	
		<line fill="none" stroke="#CCCCCC" stroke-width="2" stroke-linecap="round" stroke-miterlimit="10" x1="555.881" y1="140.399" x2="555.881" y2="197.399"/>
	<text transform="matrix(1 0 0 1 476.3555 125.3911)" fill="#767675" font-family="'OpenSans'" font-size="29.531">Ihre Firma</text>
	<g>
		<path fill="#92ABB8" d="M481.865,93.919h148.438c0.749,0,1.355-0.606,1.355-1.356v-8.922c0-0.75-0.606-1.356-1.355-1.356h-6.746
			V41.956l1.769,0.419c0.104,0.024,0.209,0.037,0.313,0.037c0.303,0,0.599-0.101,0.841-0.292c0.325-0.257,0.515-0.649,0.515-1.064
			v-4.562c0-0.618-0.417-1.157-1.014-1.312l-26.891-6.989c-0.008-0.002-0.016-0.003-0.023-0.006l-0.006-0.002
			c-0.004-0.001-0.01-0.001-0.014-0.002c-0.043-0.011-0.087-0.02-0.131-0.026c-0.014-0.002-0.027-0.003-0.041-0.004
			c-0.035-0.004-0.07-0.008-0.107-0.009c-0.019,0-0.038,0-0.058,0c-0.03,0-0.059,0.001-0.088,0.003
			c-0.026,0.002-0.052,0.005-0.077,0.009c-0.016,0.002-0.031,0.002-0.046,0.005l-12.872,2.113v-1.84c0-0.639-0.445-1.19-1.07-1.326
			l-24.638-5.323c-0.005,0-0.008,0-0.013-0.001c-0.076-0.015-0.154-0.023-0.232-0.026c-0.014,0-0.028-0.001-0.043-0.001
			c-0.074,0-0.151,0.007-0.227,0.02c-0.015,0.002-0.029,0.005-0.045,0.008s-0.033,0.005-0.051,0.009l-48.972,12.016
			c-0.606,0.148-1.032,0.692-1.032,1.317v10.493l-19.589,3.841c-0.636,0.125-1.095,0.682-1.095,1.331v31.495h-6.755
			c-0.749,0-1.356,0.606-1.356,1.356v8.922C480.509,93.312,481.116,93.919,481.865,93.919z M620.846,82.285h-20.771V36.384
			l20.771,4.928V82.285z M624.282,39.341l-24.207-5.744v-2.346l24.207,6.291V39.341z M597.363,34.668v47.617h-17.668v-48.29
			l17.668-2.901V34.668z M560.988,82.285v-52.14l15.994,3.771v48.368H560.988z M582.914,30.718l-4.527,0.744l-17.398-4.102v-2.57
			l21.926,4.737V30.718z M512.016,36.188l46.262-11.35v57.447h-6.212V68.229c0-0.386-0.164-0.753-0.452-1.011
			c-0.287-0.257-0.672-0.379-1.054-0.337l-9.125,1.014c-0.687,0.076-1.207,0.657-1.207,1.348v13.042h-2.296V69.852
			c0-0.375-0.155-0.732-0.428-0.989c-0.273-0.256-0.639-0.391-1.014-0.365l-8.031,0.507c-0.714,0.045-1.271,0.638-1.271,1.353
			v11.927h-2.397V70.358c0-0.384-0.164-0.751-0.45-1.008c-0.286-0.257-0.667-0.38-1.05-0.34l-7.604,0.812
			c-0.69,0.073-1.212,0.655-1.212,1.348v11.116h-2.459V46.734V36.188z M542.94,82.285V70.457l6.414-0.713v12.542H542.94z
			 M529.901,82.285V71.631l5.32-0.336v10.99H529.901z M517.187,82.285v-9.896l4.893-0.522v10.418H517.187z M491.332,51.905
			l17.972-3.523v33.903h-17.972V51.905z M483.221,84.997h145.726v6.21H483.221V84.997z"/>
		<path fill="#92ABB8" d="M499.168,54.32c-0.303-0.258-0.704-0.369-1.096-0.305l-4.968,0.811c-0.656,0.107-1.138,0.673-1.138,1.338
			v8.416c0,0.379,0.159,0.74,0.438,0.997c0.251,0.232,0.579,0.359,0.919,0.359c0.036,0,0.073-0.002,0.11-0.004l4.968-0.406
			c0.704-0.058,1.246-0.646,1.246-1.352v-8.821C499.646,54.955,499.471,54.577,499.168,54.32z M496.934,62.924l-2.256,0.185v-5.792
			l2.256-0.368V62.924z"/>
		<path fill="#92ABB8" d="M507.178,53.306c-0.302-0.258-0.703-0.369-1.096-0.305l-4.968,0.811c-0.656,0.107-1.137,0.674-1.137,1.338
			v8.416c0,0.379,0.158,0.741,0.437,0.997c0.251,0.232,0.58,0.359,0.919,0.359c0.036,0,0.073-0.002,0.11-0.005l4.968-0.405
			c0.704-0.058,1.246-0.646,1.246-1.352v-8.821C507.656,53.941,507.481,53.563,507.178,53.306z M504.944,61.91l-2.257,0.185v-5.792
			l2.257-0.368V61.91z"/>
		<path fill="#92ABB8" d="M499.168,68.21c-0.303-0.258-0.704-0.369-1.096-0.305l-4.968,0.812c-0.656,0.107-1.138,0.673-1.138,1.338
			v8.416c0,0.379,0.159,0.74,0.438,0.997c0.251,0.231,0.579,0.359,0.919,0.359c0.036,0,0.073-0.001,0.11-0.004l4.968-0.405
			c0.704-0.058,1.246-0.646,1.246-1.352v-8.821C499.646,68.845,499.471,68.468,499.168,68.21z M496.934,76.815l-2.256,0.184v-5.792
			l2.256-0.369V76.815z"/>
		<path fill="#92ABB8" d="M507.178,67.196c-0.302-0.257-0.703-0.369-1.096-0.305l-4.968,0.811c-0.656,0.107-1.137,0.673-1.137,1.338
			v8.416c0,0.378,0.158,0.74,0.437,0.997c0.251,0.231,0.58,0.358,0.919,0.358c0.036,0,0.073-0.001,0.11-0.004l4.968-0.405
			c0.704-0.058,1.246-0.646,1.246-1.352v-8.821C507.656,67.832,507.481,67.454,507.178,67.196z M504.944,75.801l-2.257,0.184v-5.792
			l2.257-0.369V75.801z"/>
		<path fill="#92ABB8" d="M514.945,67.329c0.248,0.215,0.563,0.33,0.886,0.33c0.065,0,0.131-0.005,0.197-0.014l7.605-1.115
			c0.666-0.098,1.159-0.669,1.159-1.342V41.056c0-0.429-0.203-0.832-0.547-1.088c-0.344-0.256-0.789-0.333-1.199-0.211l-7.604,2.281
			c-0.574,0.172-0.966,0.7-0.966,1.299v22.965C514.475,66.697,514.646,67.071,514.945,67.329z M517.187,44.346l4.893-1.468v21.138
			l-4.893,0.718V44.346z"/>
		<path fill="#92ABB8" d="M527.658,66.315c0.249,0.214,0.563,0.33,0.886,0.33c0.066,0,0.131-0.005,0.197-0.015l8.032-1.178
			c0.666-0.098,1.159-0.668,1.159-1.341V38.623c0-0.428-0.203-0.832-0.546-1.087c-0.344-0.256-0.789-0.334-1.199-0.211l-8.032,2.41
			c-0.573,0.172-0.966,0.7-0.966,1.298v24.257C527.189,65.683,527.36,66.057,527.658,66.315z M529.901,42.041l5.32-1.596v22.495
			l-5.32,0.78V42.041z"/>
		<path fill="#92ABB8" d="M541.162,64.997c0.249,0.214,0.563,0.33,0.887,0.33c0.065,0,0.131-0.004,0.197-0.014l8.276-1.214
			c0.666-0.098,1.16-0.668,1.16-1.342V36.494c0-0.429-0.203-0.832-0.547-1.088c-0.344-0.256-0.789-0.334-1.199-0.211l-8.276,2.483
			c-0.574,0.172-0.966,0.7-0.966,1.299v24.994C540.693,64.365,540.864,64.739,541.162,64.997z M543.405,39.985l5.564-1.669v23.27
			l-5.564,0.816V39.985z"/>
		<path fill="#92ABB8" d="M583.055,55.238c0.045,0,0.092-0.002,0.137-0.007l9.887-1.015c0.691-0.071,1.217-0.653,1.217-1.349V39.586
			c0-0.399-0.176-0.778-0.48-1.036s-0.708-0.367-1.101-0.301l-9.887,1.673c-0.651,0.11-1.129,0.675-1.129,1.337v12.623
			c0,0.383,0.163,0.749,0.447,1.006C582.395,55.115,582.721,55.238,583.055,55.238z M584.41,42.404l7.174-1.214v10.454l-7.174,0.736
			V42.404z"/>
		<path fill="#92ABB8" d="M583.025,77.747l9.887,0.203c0.01,0,0.019,0,0.027,0c0.354,0,0.695-0.139,0.949-0.387
			c0.26-0.255,0.406-0.604,0.406-0.969V62.095c0-0.371-0.151-0.725-0.42-0.981c-0.268-0.255-0.623-0.386-0.998-0.374l-9.886,0.456
			c-0.724,0.034-1.293,0.63-1.293,1.354v13.84C581.698,77.129,582.289,77.732,583.025,77.747z M584.41,63.846l7.174-0.331V75.21
			l-7.174-0.147V63.846z"/>
		<path fill="#92ABB8" d="M573.996,39.922l-9.887-1.673c-0.393-0.066-0.797,0.044-1.102,0.301s-0.48,0.636-0.48,1.036v13.282
			c0,0.695,0.525,1.278,1.217,1.349l9.887,1.015c0.045,0.004,0.092,0.007,0.139,0.007c0.333,0,0.658-0.124,0.908-0.35
			c0.284-0.257,0.447-0.623,0.447-1.006V41.259C575.125,40.598,574.647,40.033,573.996,39.922z M572.413,52.38l-7.174-0.736V41.19
			l7.174,1.214V52.38z"/>
		<path fill="#92ABB8" d="M573.832,61.197l-9.887-0.456c-0.372-0.012-0.73,0.118-0.998,0.374c-0.27,0.256-0.42,0.61-0.42,0.981
			v14.499c0,0.364,0.146,0.713,0.406,0.969c0.254,0.248,0.596,0.387,0.949,0.387c0.01,0,0.019,0,0.027,0l9.887-0.203
			c0.737-0.015,1.328-0.617,1.328-1.355v-13.84C575.125,61.827,574.555,61.23,573.832,61.197z M572.413,75.063l-7.174,0.147V63.515
			l7.174,0.331V75.063z"/>
	</g>
</g>
</svg>
