<?xml version="1.0" encoding="utf-8"?>
<!-- Generator: Adobe Illustrator 16.0.4, SVG Export Plug-In . SVG Version: 6.00 Build 0)  -->
<!DOCTYPE svg PUBLIC "-//W3C//DTD SVG 1.1//EN" "http://www.w3.org/Graphics/SVG/1.1/DTD/svg11.dtd">
<svg version="1.1" id="Ebene_1" xmlns="http://www.w3.org/2000/svg" xmlns:xlink="http://www.w3.org/1999/xlink" x="0px" y="0px"
	 width="300px" height="120px" viewBox="0 0 300 120" enable-background="new 0 0 300 120" xml:space="preserve">
<g id="g11" transform="matrix(1.25,0,0,-1.25,-67.3575,93.80875)">
	<path id="path55" fill="#94acb9" d="M99.061,18.746h6.412c6.197,0,11.267,5.072,11.267,11.267v15.417
		c0,6.198-5.07,11.264-11.267,11.264H53.886V-2.601h14.825v48.031h31.427c0.981,0,1.78-0.797,1.78-1.78v-14.23
		c0-0.986-0.798-1.78-1.78-1.78H74.428c-0.653,0-1.186-0.531-1.186-1.186c0-0.33,0.134-0.625,0.345-0.841l28.217-28.216h18.608
		L99.061,18.746z M209.72,56.695l-13.883-42.186l-13.878,42.186h-15.402l-13.881-42.186l-13.883,42.186h-15.398l21.581-59.295
		h15.397l13.884,42.192l13.88-42.192h15.4l21.584,59.295H209.72z M292.845,8.667V-2.601h-59.292v59.295h57.516V45.431h-42.691
		V33.274h29.644V22.007h-29.644V8.667"/>
</g>
</svg>
