<?xml version="1.0" encoding="utf-8"?>
<!-- Generator: Adobe Illustrator 16.0.4, SVG Export Plug-In . SVG Version: 6.00 Build 0)  -->
<!DOCTYPE svg PUBLIC "-//W3C//DTD SVG 1.1//EN" "http://www.w3.org/Graphics/SVG/1.1/DTD/svg11.dtd">
<svg version="1.1" id="Ebene_1" xmlns="http://www.w3.org/2000/svg" xmlns:xlink="http://www.w3.org/1999/xlink" x="0px" y="0px"
	 width="300px" height="120px" viewBox="0 0 300 120" enable-background="new 0 0 300 120" xml:space="preserve">
<g>
	<polygon id="polygon5" fill="#94acb9" points="244.822,93.645 244.822,26.674 260.895,26.674 260.895,81.604 260.895,81.604
		299.963,81.604 299.963,93.645 	"/>
	<polygon id="polygon7" fill="#94acb9" points="0.609,26.573 0.609,26.573 78.201,87.26 18.602,26.573 	"/>
	<path id="path9" fill="#94acb9" d="M36.396,26.573l43.146,58.859c-6.493-19.65-19.492-44.334-26.817-58.859H36.396L36.396,26.573z"
		/>
	<path id="path11" fill="#94acb9" d="M68.917,26.573h15.911c0,0,0.152,43.373,0.042,50.865c-0.103,7.076-2.477,16.066-16.326,16.213
		c-14.691,0.156-68.507,0-68.507,0V77.262c0,0,63.812,12.332,70.305,13.496c6.495,1.166,13.352-1.664,11.022-11.822
		C79.033,68.775,68.917,26.573,68.917,26.573L68.917,26.573z"/>
	<path id="path13" fill="#94acb9" d="M0.037,43.792c0,0,69.018,40.472,71.845,42.136c2.833,1.666,4.663,2.664,4.663,2.664
		c-5.827-0.332-10.822-2.664-13.485-3.664S0.039,60.413,0.039,60.413V43.792H0.037z"/>
	<path id="path15" fill="#94acb9" d="M237.418,46.608h-16.512l0.004-0.108c-0.039-10.065-5.27-9.57-19.432-9.66
		c-19.131-0.121-20.84,2.213-21.018,15.479l0.053,15.737c0.277,14.367,2.361,15.662,21.129,15.596
		c15.311-0.057,19.879-0.186,19.832-13.18v-0.445l-20.537-0.021V58.145h36.775l0.037,0.053l0.441,12.216
		c0.07,20.316-6.15,23.982-36.512,24.236c-27.223,0.223-37.721-3.297-37.803-26.535l-0.055-16.486
		c-0.088-23.59,9.971-26.191,37.617-26.287c19.367-0.068,36.455,1.34,36.012,21.19L237.418,46.608L237.418,46.608z"/>
	<path id="path17" fill="#94acb9" d="M137.741,26.674h-23.664l-27.791,66.97h16.63l8.432-20.721l29.898-0.006l8.548,20.727h16.296
		L137.741,26.674L137.741,26.674L137.741,26.674L137.741,26.674z M116.065,61.148L126.133,36.5h0.225l10.087,24.649H116.065
		L116.065,61.148z"/>
</g>
</svg>
