<?xml version="1.0" encoding="utf-8"?>
<!-- Generator: Adobe Illustrator 16.0.4, SVG Export Plug-In . SVG Version: 6.00 Build 0)  -->
<!DOCTYPE svg PUBLIC "-//W3C//DTD SVG 1.1//EN" "http://www.w3.org/Graphics/SVG/1.1/DTD/svg11.dtd">
<svg version="1.1" id="Ebene_1" xmlns="http://www.w3.org/2000/svg" xmlns:xlink="http://www.w3.org/1999/xlink" x="0px" y="0px"
	 width="300px" height="120px" viewBox="0 0 300 120" enable-background="new 0 0 300 120" xml:space="preserve">
<path id="_94562272" fill="#94acb9" d="M132.568,60.209c-2.242-2.286-3.625-5.424-3.625-8.88c0-6.999,5.67-12.676,12.669-12.682
	h22.807v7.614h-22.807c-2.792,0.005-5.056,2.271-5.056,5.067s2.264,5.062,5.056,5.068h15.151v7.609h-15.151
	c-2.792,0.006-5.056,2.274-5.056,5.067c0,2.799,2.264,5.064,5.056,5.066h22.807v7.615h-22.807
	c-6.999-0.006-12.669-5.68-12.669-12.682C128.942,65.619,130.326,62.496,132.568,60.209L132.568,60.209z M191.034,58.876
	c2.78,0.016,5.031,2.272,5.039,5.056v17.826h7.614V63.932c-0.006-6.989-5.668-12.652-12.653-12.669h-20.307v30.454h7.608V58.876
	H191.034L191.034,58.876z M278.441,78.131c-2.29,2.243-5.409,3.627-8.866,3.627c-6.999,0-12.679-5.67-12.683-12.67V38.655h7.611
	v30.433c0.01,2.794,2.277,5.059,5.071,5.059c2.798,0,5.063-2.265,5.068-5.059V51.33h7.612v17.758
	c0.003,2.794,2.273,5.059,5.067,5.059c2.792,0,5.062-2.265,5.063-5.059V38.655H300v30.433c-0.005,7-5.68,12.67-12.677,12.67
	C283.865,81.758,280.729,80.374,278.441,78.131L278.441,78.131z M218.881,46.266v20.273h-7.607V38.652h25.357
	c7.002,0.003,12.672,5.682,12.672,12.678c0,3.459-1.383,6.596-3.629,8.883c2.246,2.289,3.629,5.408,3.629,8.863
	c0,7.004-5.67,12.676-12.672,12.682h-25.357v-7.611h25.357c2.797-0.006,5.06-2.271,5.06-5.07c0-2.795-2.263-5.062-5.06-5.066
	h-10.148v-7.611h10.148c2.797-0.001,5.06-2.271,5.06-5.068c0-2.793-2.263-5.061-5.06-5.064H218.881L218.881,46.266z"/>
<path id="_93913832" fill="#94acb9" d="M3.767,63.443c-1.792,0-3.246-1.451-3.246-3.242c0-1.793,1.454-3.24,3.246-3.24h113.351
	v6.473l-64.337,0.01H3.767L3.767,63.443z"/>
</svg>
