<?xml version="1.0" encoding="utf-8"?>
<!-- Generator: Adobe Illustrator 16.0.4, SVG Export Plug-In . SVG Version: 6.00 Build 0)  -->
<!DOCTYPE svg PUBLIC "-//W3C//DTD SVG 1.1//EN" "http://www.w3.org/Graphics/SVG/1.1/DTD/svg11.dtd">
<svg version="1.1" id="Ebene_1" xmlns="http://www.w3.org/2000/svg" xmlns:xlink="http://www.w3.org/1999/xlink" x="0px" y="0px"
	 width="126px" height="120px" viewBox="0 0 126 120" enable-background="new 0 0 126 120" xml:space="preserve">
<g>
	<path fill="#92ABB8" d="M8.227,91.383c-0.199,0-0.545,0-0.894-0.027v5.543H3.472V80.199c1.436-0.074,3.021-0.125,4.755-0.125
		c4.257,0,6.583,1.93,6.583,5.367C14.81,88.684,12.483,91.383,8.227,91.383z M8.15,83.215c-0.272,0-0.545,0-0.817,0.027v4.898
		c0.249,0.023,0.472,0.051,0.671,0.051c1.608-0.027,2.821-0.941,2.821-2.574C10.825,84.207,10.058,83.215,8.15,83.215z"/>
	<path fill="#92ABB8" d="M26.054,96.898l-3.961-6.531h-0.146v6.531h-3.864V80.199c1.412-0.102,3.22-0.125,5.224-0.125
		c3.938,0,6.313,1.41,6.313,4.949c0,2.25-1.459,4.082-3.688,4.625c0.445,0.645,0.891,1.262,1.286,1.883l3.542,5.367H26.054z
		 M23.01,83.242c-0.396,0-0.841,0.023-1.063,0.051v4.277c0.196,0.023,0.595,0.051,0.964,0.051c1.635,0,2.675-0.867,2.675-2.277
		C25.585,84.031,24.817,83.242,23.01,83.242z"/>
	<path fill="#92ABB8" d="M40.318,97.219c-5.174,0-7.699-3.215-7.699-8.461c0-5.441,3.738-8.883,8.294-8.883
		c4.406,0,7.699,2.551,7.699,8.414C48.612,93.781,44.95,97.219,40.318,97.219z M40.617,83.391c-2.007,0-3.911,1.559-3.911,5.047
		c0,3.215,1.187,5.246,3.835,5.246c1.834,0,3.987-1.363,3.987-5.148C44.528,85.172,43.166,83.391,40.617,83.391z"/>
	<path fill="#92ABB8" d="M56.244,83.488v3.562h5.051v3.168h-5.051v6.68h-3.861V80.199h9.208v3.289H56.244z"/>
	<path fill="#92ABB8" d="M65.93,96.898V80.199h9.406v3.238h-5.543v3.316h5.246v3.145h-5.246v3.684h5.543v3.316H65.93z"/>
	<path fill="#92ABB8" d="M86.48,97.121c-6.164,0-7.82-4.18-7.82-7.969c0-5.414,2.945-9.078,8.465-9.078
		c1.164,0,2.379,0.148,3.418,0.422l-0.445,3.488c-0.941-0.273-2.008-0.445-3.047-0.445c-2.699,0-4.156,1.953-4.156,4.973
		c0,3.289,1.336,5.098,4.355,5.098c0.867,0,2.129-0.223,2.922-0.594l0.445,3.438C89.402,96.875,87.918,97.121,86.48,97.121z"/>
	<path fill="#92ABB8" d="M100.965,83.488v13.41h-3.836v-13.41h-4.012v-3.289h11.859v3.289H100.965z"/>
	<path fill="#92ABB8" d="M114.234,97.219c-5.172,0-7.699-3.215-7.699-8.461c0-5.441,3.738-8.883,8.289-8.883
		c4.41,0,7.703,2.551,7.703,8.414C122.527,93.781,118.863,97.219,114.234,97.219z M114.531,83.391c-2.004,0-3.91,1.559-3.91,5.047
		c0,3.215,1.188,5.246,3.836,5.246c1.832,0,3.984-1.363,3.984-5.148C118.441,85.172,117.078,83.391,114.531,83.391z"/>
</g>
<g>
	<path fill="#767675" d="M9.626,116.32c-3.973,0-5.801-2.465-5.801-6.262c0-3.852,1.866-6.812,6.237-6.812
		c0.99,0,2.019,0.152,2.968,0.379l-0.152,1.348c-1.063-0.32-2.054-0.492-3.062-0.492c-3.12,0-4.412,2.43-4.412,5.352
		c0,3.301,1.465,5.199,4.603,5.199c0.99,0,2.227-0.285,3.023-0.684l0.152,1.289C12.195,116.055,10.959,116.32,9.626,116.32z"/>
	<path fill="#767675" d="M21.389,116.34c-3.841,0-5.684-2.562-5.684-6.434c0-4.309,2.716-6.715,6.026-6.715
		c3.48,0,5.666,2.312,5.666,6.43C27.397,113.91,24.679,116.34,21.389,116.34z M21.541,104.441c-2.262,0-4.28,1.844-4.28,5.199
		c0,3.207,1.389,5.426,4.28,5.426c2.244,0,4.298-1.82,4.298-5.215C25.839,106.414,24.263,104.441,21.541,104.441z"/>
	<path fill="#767675" d="M39.295,116.168l-5.341-8.5c-0.571-0.93-1.049-1.781-1.465-2.617c0.056,1.461,0.114,4.969,0.114,7.191
		v3.926h-1.427v-12.809h1.939l5.247,8.312c0.551,0.891,1.084,1.84,1.579,2.734c-0.076-1.711-0.132-5.203-0.132-7.535v-3.512h1.427
		v12.809H39.295z"/>
	<path fill="#767675" d="M47.981,116.34c-0.952,0-1.863-0.133-2.569-0.324l0.076-1.422c0.744,0.266,1.731,0.473,2.625,0.473
		c1.655,0,3.044-0.66,3.044-2.406c0-3.039-5.953-1.879-5.953-5.922c0-2.031,1.635-3.547,4.45-3.547c0.797,0,1.538,0.094,2.3,0.246
		l-0.076,1.309c-0.721-0.207-1.579-0.344-2.32-0.344c-1.863,0-2.851,0.875-2.851,2.184c0,2.941,5.95,1.879,5.95,5.883
		C52.657,114.727,50.891,116.34,47.981,116.34z"/>
	<path fill="#767675" d="M61.399,116.34c-3.973,0-4.734-2.223-4.734-4.422v-8.559h1.465v8.426c0,1.84,0.609,3.359,3.384,3.359
		c2.357,0,3.518-0.988,3.518-3.719v-8.066h1.426v7.953C66.457,114.594,64.73,116.34,61.399,116.34z"/>
	<path fill="#767675" d="M71.434,116.168v-12.809h1.461v11.574h4.754v1.234H71.434z"/>
	<path fill="#767675" d="M83.672,104.574v11.594H82.23v-11.594h-3.844v-1.215h9.148v1.215H83.672z"/>
	<path fill="#767675" d="M91.008,116.168v-12.809h1.465v12.809H91.008z"/>
	<path fill="#767675" d="M106.203,116.168l-5.348-8.5c-0.566-0.93-1.043-1.781-1.461-2.617c0.055,1.461,0.113,4.969,0.113,7.191
		v3.926h-1.426v-12.809h1.938l5.25,8.312c0.551,0.891,1.086,1.84,1.578,2.734c-0.078-1.711-0.133-5.203-0.133-7.535v-3.512h1.426
		v12.809H106.203z"/>
	<path fill="#767675" d="M121.754,105.105c-1.082-0.434-2.281-0.684-3.422-0.684c-2.703,0-5.137,1.746-5.137,5.391
		c0,3.379,2.016,5.273,5.02,5.273c0.934,0,1.734-0.133,2.496-0.379v-4.988h1.461v5.898c-1.293,0.477-2.832,0.723-4.184,0.723
		c-3.805,0-6.332-2.352-6.332-6.34c0-3.887,2.566-6.809,6.828-6.809c1.195,0,2.34,0.188,3.496,0.551L121.754,105.105z"/>
</g>
<g>
	<path fill="#92ABB8" d="M37.489,37.677h8.502c7.046,0,12.756-5.709,12.756-12.756c0-7.043-5.71-12.756-12.756-12.756h-8.505V3.661
		h8.505c11.742,0,21.261,9.518,21.261,21.26s-9.519,21.262-21.261,21.262v8.502h-8.505L37.489,37.677z"/>
	<path fill="#767675" d="M88.512,20.671h-8.504v-8.502c-7.043,0-12.756,5.709-12.756,12.756c0,7.043,5.713,12.756,12.756,12.756
		h8.504v8.502h-8.504c-11.742,0-21.261-9.52-21.261-21.262c0-11.738,9.519-21.258,21.261-21.258h8.502L88.512,20.671z"/>
	<path fill="#1A1A18" d="M67.252,24.921c0,4.787-1.584,9.199-4.257,12.754c-2.666-3.551-4.248-7.973-4.248-12.754
		c0-4.77,1.588-9.188,4.239-12.734C65.656,15.737,67.252,20.138,67.252,24.921"/>
</g>
</svg>
